{"glyphs":{"0":{"ha":713,"x_min":40,"x_max":679,"o":"m 353 986 q 417 986 353 986 q 561 900 481 986 q 667 685 642 814 q 679 572 679 610 q 679 518 679 535 q 679 458 679 501 q 664 334 679 414 q 611 174 649 254 q 506 48 574 93 q 358 3 439 3 q 318 3 349 3 q 238 22 288 4 q 149 76 188 40 q 92 148 111 113 q 61 242 72 183 q 44 429 47 325 q 40 593 40 533 q 58 726 40 653 q 128 876 79 818 q 353 986 226 986 m 283 267 q 284 262 283 267 q 296 247 286 257 q 322 233 306 238 q 351 229 339 229 q 439 339 424 229 q 443 391 442 360 q 446 447 444 422 q 447 507 447 472 q 407 739 447 681 q 353 767 385 767 q 322 761 339 767 q 275 724 293 754 q 256 629 264 707 q 249 469 249 551 q 259 351 249 388 q 274 295 269 314 q 283 267 279 276 z "},"1":{"ha":508,"x_min":3,"x_max":450,"o":"m 450 753 l 435 122 q 436 25 435 57 q 351 0 436 0 q 215 10 303 0 l 215 146 q 224 413 215 236 q 232 642 232 589 q 231 704 232 694 q 210 679 221 707 q 172 628 190 628 q 78 648 153 628 q 3 679 3 668 q 81 846 7 719 q 171 989 154 972 q 317 992 257 992 q 443 986 376 992 q 450 753 450 888 z "},"2":{"ha":692,"x_min":42,"x_max":658,"o":"m 346 197 l 626 201 q 636 131 636 175 q 636 51 636 86 q 639 7 636 17 q 633 6 639 6 l 106 -1 l 43 -1 q 43 18 42 0 q 45 117 44 36 q 55 251 46 199 q 90 347 64 303 q 248 469 142 404 q 386 560 354 533 q 436 660 436 593 q 424 714 436 689 q 363 758 404 753 q 272 678 290 758 q 260 590 263 639 l 260 588 l 258 588 q 126 578 174 578 q 53 581 79 578 l 51 581 l 51 583 q 43 679 43 633 q 121 904 43 815 q 227 968 156 949 q 364 988 299 988 l 389 988 q 518 963 467 983 q 654 731 638 901 q 657 633 657 654 q 610 488 657 542 q 510 411 563 435 q 299 279 347 339 q 279 214 279 228 q 283 199 279 200 q 346 197 303 197 z "},"3":{"ha":683,"x_min":35,"x_max":633,"o":"m 39 679 l 36 750 q 44 808 36 785 q 119 916 64 872 q 235 972 175 960 q 332 983 296 983 q 516 949 449 983 q 611 865 583 914 q 631 779 631 833 q 632 724 631 772 q 633 562 633 676 q 630 370 633 447 q 626 265 626 293 q 624 222 625 238 q 604 144 619 178 q 465 15 563 47 q 351 -1 410 -1 q 239 6 292 -1 q 178 22 233 7 q 90 68 122 36 q 51 160 58 100 q 44 229 47 182 q 40 290 42 276 q 40 304 39 304 l 42 304 q 61 304 46 304 q 124 310 76 304 q 193 317 172 317 q 222 317 214 317 l 224 317 l 225 315 q 271 256 236 281 q 344 228 307 228 q 411 263 382 228 q 425 300 425 283 q 390 383 425 357 q 313 408 354 408 q 236 401 271 408 q 226 457 226 411 l 231 572 q 229 593 231 588 l 229 594 q 304 601 247 601 q 392 617 361 601 q 422 679 422 633 q 349 761 422 761 q 277 740 317 761 q 222 679 238 718 q 39 676 203 676 l 39 679 z "},"4":{"ha":651,"x_min":18,"x_max":628,"o":"m 324 975 l 500 979 q 542 978 524 979 l 544 978 l 543 925 q 540 803 542 874 q 535 656 538 733 q 533 526 533 578 q 535 457 533 474 q 590 458 557 461 q 628 456 624 456 l 619 254 q 596 250 608 250 q 566 251 583 250 q 535 250 549 253 l 533 222 q 515 6 519 22 q 465 -4 508 -4 l 383 -4 l 315 -4 q 321 130 311 0 q 331 263 331 260 q 247 265 322 265 q 33 269 36 265 q 18 377 18 315 q 19 471 18 439 q 64 547 31 488 q 322 974 175 756 q 324 975 322 975 m 371 754 q 210 500 356 754 l 185 456 l 368 454 l 372 751 q 371 754 372 754 z "},"5":{"ha":699,"x_min":50,"x_max":663,"o":"m 258 756 q 263 731 261 751 q 271 701 264 708 l 272 701 q 351 710 315 710 q 418 704 388 710 q 531 658 483 694 q 647 453 614 596 q 661 360 661 393 q 653 186 661 267 q 589 78 639 124 q 333 -12 492 -12 q 90 89 165 -12 q 51 211 51 140 q 60 297 51 253 l 60 300 l 257 307 l 257 306 q 285 233 267 249 q 320 217 304 217 q 346 219 336 217 q 431 289 407 231 q 442 349 442 319 q 431 408 442 379 q 356 486 408 469 q 278 492 329 492 l 86 485 q 53 488 53 485 l 50 967 l 51 967 l 206 969 q 553 976 490 976 q 643 975 617 976 q 644 942 644 975 q 640 803 644 903 l 639 769 q 260 760 568 760 l 258 760 l 258 756 z "},"6":{"ha":699,"x_min":43,"x_max":671,"o":"m 283 451 q 468 499 371 499 q 522 492 499 499 q 618 432 581 474 q 665 315 654 397 l 668 282 q 669 249 669 265 q 617 100 669 165 q 339 -6 528 -6 q 274 -1 307 -6 q 131 85 185 14 q 64 253 78 156 q 44 489 44 376 q 49 643 44 601 q 56 728 53 685 q 71 813 58 792 q 201 938 106 892 q 401 983 296 983 q 408 983 406 983 q 600 888 531 983 q 649 743 649 819 q 639 674 649 710 q 539 667 607 668 q 456 664 471 665 l 453 664 l 453 665 q 425 756 450 731 q 372 782 400 782 q 319 760 342 782 q 283 695 289 733 q 276 618 276 657 l 283 465 q 283 453 283 458 l 283 451 m 503 265 l 503 283 q 438 347 503 347 q 354 304 388 347 q 344 275 344 288 q 378 215 344 235 q 418 207 397 207 q 463 219 439 207 q 503 265 497 236 z "},"7":{"ha":661,"x_min":22,"x_max":643,"o":"m 233 10 l 86 3 q 22 10 47 3 q 196 371 67 106 q 388 779 325 636 q 117 793 181 793 q 33 792 53 793 l 31 792 q 38 981 33 817 l 38 982 l 353 989 q 642 979 553 989 l 642 978 q 640 938 640 968 l 643 785 q 428 365 579 638 q 233 10 276 93 z "},"8":{"ha":681,"x_min":32,"x_max":643,"o":"m 121 489 q 44 685 44 568 q 107 890 44 801 q 278 983 169 978 q 367 985 325 985 q 449 981 410 985 q 544 943 500 975 q 556 935 551 938 q 567 925 560 932 l 578 914 q 590 897 583 908 l 606 875 q 635 785 628 838 q 643 726 643 732 l 643 688 q 638 644 643 661 q 536 481 614 544 l 536 479 q 625 353 601 431 q 640 268 640 307 q 564 63 640 147 q 422 -10 518 8 q 335 -18 382 -18 q 233 -3 288 -18 q 97 79 140 21 q 33 280 33 156 q 121 489 33 404 m 400 651 q 404 685 404 665 q 386 722 404 706 q 340 739 368 739 q 299 728 311 739 q 278 713 286 718 q 271 703 271 707 l 271 700 q 269 677 269 693 q 285 635 269 661 q 343 607 301 607 q 400 651 385 607 m 394 253 q 410 274 400 256 q 419 303 419 292 q 392 363 419 340 q 331 386 365 386 q 310 383 321 386 q 258 301 258 364 q 294 247 258 264 q 333 240 313 240 q 372 244 354 240 q 394 253 389 247 z "},"9":{"ha":713,"x_min":38,"x_max":664,"o":"m 42 308 l 188 315 q 260 311 211 315 q 291 264 268 282 q 340 246 314 246 q 347 246 343 246 q 422 385 422 254 q 421 417 422 400 l 419 418 q 321 397 368 397 q 231 413 274 397 q 82 525 135 444 q 39 706 39 589 q 61 831 39 782 q 92 878 81 865 q 356 985 176 978 q 542 964 497 985 q 656 750 644 919 q 658 654 657 714 l 661 449 q 664 313 664 351 q 593 79 664 178 q 369 -7 522 -7 q 224 19 296 -7 q 38 253 38 83 q 42 301 38 276 l 42 308 m 289 647 q 362 603 310 603 q 433 635 414 603 l 442 651 q 444 660 444 657 q 447 669 444 664 q 449 693 449 674 q 408 751 449 731 q 364 763 386 763 l 322 753 q 279 700 279 735 q 289 649 282 668 l 289 647 z "}," ":{"ha":278,"x_min":0,"x_max":0,"o":""},"!":{"ha":301,"x_min":58,"x_max":244,"o":"m 231 1 l 178 3 l 175 3 l 71 1 q 69 81 64 15 q 75 164 75 146 l 75 165 q 133 175 96 175 l 244 168 q 240 1 240 14 l 231 1 m 71 975 q 178 985 136 985 q 242 978 221 985 q 238 552 238 742 q 243 243 238 363 q 64 236 217 240 l 63 236 q 63 296 63 257 l 60 742 q 67 975 60 917 l 71 975 z "},"\"":{"ha":525,"x_min":51,"x_max":476,"o":"m 178 639 l 51 638 l 51 639 q 54 975 51 924 l 54 978 l 56 978 l 171 988 q 206 981 193 988 l 208 639 l 178 639 m 446 639 l 319 638 l 319 639 q 322 975 319 924 l 322 978 l 324 978 q 439 988 324 978 q 474 981 461 988 q 476 639 474 981 l 446 639 z "},"#":{"ha":929,"x_min":35,"x_max":897,"o":"m 800 671 l 888 669 l 888 664 l 897 536 l 750 532 q 721 444 739 501 q 692 357 703 388 l 725 357 q 872 351 789 357 q 879 296 879 336 q 882 222 879 256 l 882 219 q 772 215 842 215 q 644 214 703 215 l 640 214 q 625 171 638 210 q 558 3 583 51 l 557 1 l 396 1 q 433 116 407 44 q 467 218 458 188 l 465 218 q 407 219 447 219 q 304 218 367 219 q 281 151 288 164 q 239 51 263 115 q 219 3 231 22 q 198 1 217 0 q 142 3 179 3 q 60 0 106 3 q 99 135 72 65 q 131 215 126 204 l 54 213 q 39 213 44 213 q 35 364 35 279 q 96 356 43 356 q 188 357 149 356 q 198 381 193 363 q 208 417 203 400 q 244 532 224 472 q 53 531 235 532 l 50 681 l 51 681 q 140 672 76 672 q 249 674 204 672 l 292 674 q 292 675 292 675 q 297 684 293 675 q 326 770 301 693 q 358 885 350 847 l 358 886 q 524 879 363 885 q 463 675 524 878 l 574 676 q 628 675 604 676 q 697 888 651 711 l 700 888 q 753 885 719 885 l 803 885 q 857 882 838 885 q 858 874 858 878 q 858 865 858 869 q 854 852 857 860 q 849 835 851 844 q 842 810 847 826 q 831 776 836 793 q 817 730 826 758 q 800 671 808 701 m 583 533 l 581 533 q 415 536 461 536 l 413 536 l 413 535 q 383 447 403 506 q 353 357 364 388 l 526 358 q 531 377 528 361 q 556 449 535 393 q 583 532 576 504 l 583 533 z "},"$":{"ha":618,"x_min":28,"x_max":592,"o":"m 522 614 l 444 611 q 388 628 404 611 q 374 667 372 646 q 325 724 378 724 q 281 704 303 724 q 260 661 260 685 q 273 615 260 638 q 314 567 286 592 q 363 528 342 543 q 472 451 388 507 q 555 349 524 414 q 586 222 586 283 q 504 61 586 128 q 460 31 497 54 q 417 8 422 8 l 415 -90 l 415 -96 q 363 -133 415 -133 l 304 -135 l 265 -135 q 215 -89 215 -135 l 219 -51 q 175 15 219 1 q 55 102 82 46 q 28 265 28 158 q 35 319 28 308 q 92 336 46 336 l 178 331 q 212 328 201 331 q 232 316 222 326 q 242 286 242 306 l 243 243 q 301 182 243 182 q 345 197 325 182 q 365 232 365 211 q 323 333 365 285 q 210 436 281 382 q 114 518 139 490 q 39 704 39 603 q 89 829 39 779 q 214 901 139 879 q 220 911 222 904 q 218 921 218 918 l 211 1024 q 247 1046 211 1046 q 292 1046 269 1046 q 411 1028 403 1046 l 411 914 q 429 894 411 896 q 515 855 476 890 q 572 779 553 819 q 592 650 592 739 q 544 614 592 614 l 522 614 z "},"%":{"ha":839,"x_min":25,"x_max":815,"o":"m 529 982 l 604 983 q 668 974 656 983 q 660 949 664 965 q 625 833 656 933 q 574 678 594 733 q 547 603 554 624 q 503 468 540 583 q 411 210 443 288 l 332 10 q 328 3 331 6 q 288 1 318 1 q 154 -1 257 1 l 153 -1 q 165 60 142 -1 q 200 160 188 121 q 233 247 213 200 q 310 461 243 282 q 394 699 376 640 q 416 766 413 758 q 431 803 419 774 q 485 985 458 885 q 529 982 497 982 m 179 949 q 211 949 179 949 q 281 908 243 949 q 332 804 319 867 q 338 746 338 763 q 338 722 338 729 q 338 685 338 714 q 325 606 338 656 q 274 515 313 556 q 179 475 235 475 q 106 493 140 475 q 38 594 53 528 l 26 676 l 26 678 l 25 713 l 28 747 q 31 777 29 754 q 35 811 33 800 q 42 840 38 822 q 72 896 51 875 q 179 949 115 949 m 222 642 l 224 657 q 225 726 225 682 q 218 797 225 769 q 210 826 211 825 q 201 835 208 826 q 184 844 194 844 q 163 840 174 844 q 135 782 135 828 q 135 768 135 775 l 135 767 l 142 665 l 144 613 q 158 588 144 596 q 183 584 172 581 q 199 590 194 588 q 206 595 203 593 q 210 602 208 597 q 214 609 213 607 q 217 617 215 611 q 219 625 218 622 q 222 642 222 635 m 656 508 q 688 508 656 508 q 758 467 719 508 q 808 364 796 426 q 814 306 814 322 q 814 281 814 289 q 814 244 814 274 q 801 165 814 215 q 750 75 789 115 q 656 35 711 35 q 582 53 617 35 q 514 154 529 88 l 503 236 l 503 238 l 501 272 l 504 307 q 508 337 506 314 q 512 371 510 360 q 519 400 514 382 q 549 456 528 435 q 656 508 592 508 m 699 201 l 700 217 q 701 285 701 242 q 688 382 701 329 q 683 389 683 386 q 661 404 672 404 q 639 400 650 404 q 611 342 611 388 q 611 328 611 335 l 611 326 l 618 225 l 621 172 q 632 149 621 156 q 651 143 643 143 q 665 145 658 143 q 675 150 671 147 q 682 155 679 153 q 687 162 685 157 q 690 169 689 167 q 693 176 692 171 q 694 183 694 182 q 699 201 699 194 z "},"&":{"ha":785,"x_min":25,"x_max":768,"o":"m 661 -1 l 654 -1 q 569 8 599 -1 q 503 53 540 17 q 304 -1 433 6 q 100 92 175 -1 q 25 312 25 185 q 164 569 25 439 q 57 802 57 713 q 140 953 57 892 q 326 1015 222 1015 q 497 953 429 1015 q 564 804 564 890 q 551 733 564 760 q 535 701 538 707 q 525 682 533 696 q 514 664 517 668 q 490 628 500 647 q 449 561 449 567 q 448 545 447 550 q 449 531 449 540 q 454 511 450 522 q 464 486 458 500 q 507 419 476 463 q 521 475 521 442 q 601 539 529 539 l 700 539 q 739 528 726 539 q 751 476 751 518 q 711 340 751 433 l 700 311 q 693 299 697 308 q 676 262 689 289 q 663 229 663 235 q 667 217 663 224 q 683 197 672 210 q 699 178 693 185 l 699 179 q 768 60 760 103 l 768 47 l 767 40 q 661 -1 756 -1 m 325 858 q 265 801 265 858 q 280 735 265 772 q 307 697 294 697 q 308 697 307 697 l 308 696 q 353 829 353 703 q 325 858 353 858 m 406 288 q 314 400 406 400 q 289 399 301 400 q 249 359 264 396 q 235 304 235 322 q 236 278 235 286 q 326 193 246 193 q 364 197 335 193 q 399 214 399 210 l 406 288 z "},"'":{"ha":257,"x_min":51,"x_max":208,"o":"m 178 639 l 51 638 l 51 639 q 54 975 51 924 l 54 978 l 56 978 l 171 988 q 206 981 193 988 l 208 639 l 178 639 z "},"(":{"ha":436,"x_min":44,"x_max":403,"o":"m 244 528 l 243 431 q 258 282 243 335 q 319 209 278 238 q 401 179 360 181 l 403 179 l 403 172 q 400 92 400 149 q 399 13 400 35 q 340 0 389 0 l 317 0 q 225 17 267 3 q 97 111 149 43 q 44 282 53 189 q 53 526 53 478 q 53 583 53 574 l 53 617 q 62 799 53 761 q 86 863 71 836 q 294 988 150 985 q 396 979 350 985 l 397 978 q 400 921 400 964 q 397 807 400 878 q 269 696 283 774 q 258 651 263 676 q 244 528 254 626 z "},")":{"ha":435,"x_min":33,"x_max":392,"o":"m 193 431 l 192 528 q 178 651 182 626 q 167 696 174 676 q 39 807 153 774 q 36 921 36 878 q 39 978 36 964 l 40 979 q 142 988 85 985 q 350 863 286 985 q 381 742 379 811 q 383 617 383 653 l 383 583 q 383 526 383 574 q 392 282 383 478 q 339 111 383 189 q 210 15 289 44 q 119 0 169 3 l 96 0 q 38 13 47 0 q 36 91 36 35 q 33 172 36 147 l 33 179 l 35 179 q 117 209 76 181 q 178 282 158 238 q 193 431 193 335 z "},"*":{"ha":510,"x_min":26,"x_max":483,"o":"m 443 575 l 353 503 q 350 501 351 501 l 349 503 q 322 529 331 526 q 249 597 258 593 q 205 558 240 593 q 160 517 169 524 q 147 510 151 510 q 28 619 53 599 q 76 675 39 636 q 119 721 113 714 q 121 736 125 728 q 73 794 117 744 q 26 851 29 843 q 85 906 33 854 l 149 968 q 203 921 154 967 q 258 871 253 875 l 361 965 l 478 849 q 433 790 475 831 q 386 735 392 749 q 435 681 390 735 q 483 625 481 626 q 465 596 486 614 q 443 575 444 578 z "},"+":{"ha":618,"x_min":26,"x_max":588,"o":"m 364 156 l 213 158 q 197 158 199 158 q 193 213 193 163 l 194 268 q 190 332 194 328 l 188 332 q 103 336 163 332 q 32 349 32 342 q 33 378 33 363 q 32 421 33 394 q 28 490 31 447 q 26 533 26 532 q 38 533 28 533 q 122 539 49 533 q 203 547 194 544 q 207 650 203 600 q 211 703 211 700 l 215 728 q 274 721 215 721 l 401 722 q 417 722 414 722 q 419 550 417 558 q 501 549 438 549 q 588 544 564 549 q 586 447 586 513 q 582 343 586 381 q 502 340 578 340 q 417 333 426 339 q 418 317 418 328 l 407 164 l 407 161 q 364 156 400 156 z "},",":{"ha":261,"x_min":43,"x_max":218,"o":"m 208 1 l 181 -139 q 85 -136 179 -139 q 88 -111 82 -133 q 101 -56 88 -111 q 113 -1 110 -22 l 47 4 q 43 6 44 4 q 49 165 43 44 l 49 167 l 50 167 q 90 175 72 175 q 217 165 108 175 l 218 165 l 213 6 l 210 6 q 208 1 208 3 z "},"-":{"ha":724,"x_min":50,"x_max":674,"o":"m 672 271 l 50 281 l 54 503 l 669 503 l 667 369 q 674 271 667 310 l 672 271 z "},".":{"ha":263,"x_min":43,"x_max":219,"o":"m 47 1 q 43 75 43 25 l 46 163 q 137 174 72 174 q 219 165 201 174 l 217 131 q 211 3 211 24 l 211 0 l 208 0 l 51 1 l 47 1 z "},"/":{"ha":572,"x_min":26,"x_max":546,"o":"m 407 982 l 482 983 q 546 974 533 983 q 538 949 542 965 q 503 833 533 933 q 452 678 472 733 q 425 603 432 624 q 381 468 418 583 q 289 210 321 288 l 210 10 q 206 3 208 6 q 165 1 196 1 q 32 -1 135 1 l 31 -1 q 28 5 28 -1 q 34 33 28 11 q 53 88 40 54 q 78 160 65 121 q 111 247 90 200 q 188 461 121 282 q 272 699 254 640 q 294 766 290 758 q 308 803 297 774 q 363 985 336 885 q 407 982 375 982 z "},":":{"ha":285,"x_min":54,"x_max":231,"o":"m 58 1 q 54 75 54 25 l 57 163 q 148 174 83 174 q 231 165 213 174 l 228 131 q 222 3 222 24 l 222 0 l 219 0 l 63 1 l 58 1 m 58 468 q 54 542 54 492 l 57 629 q 148 640 83 640 q 231 632 213 640 l 228 597 q 222 469 222 490 l 222 467 l 219 467 l 63 468 l 58 468 z "},";":{"ha":285,"x_min":54,"x_max":231,"o":"m 58 468 q 54 542 54 492 l 57 629 q 148 640 83 640 q 231 632 213 640 l 228 597 q 222 469 222 490 l 222 467 l 219 467 l 63 468 l 58 468 m 221 1 l 193 -139 q 97 -136 192 -139 q 100 -111 94 -133 l 114 -56 q 125 -1 122 -22 l 60 4 q 56 6 57 4 q 61 165 56 44 l 61 167 l 63 167 q 103 175 86 175 q 229 165 121 175 l 231 165 l 225 6 l 222 6 q 221 1 221 3 z "},"<":{"ha":504,"x_min":18,"x_max":476,"o":"m 476 129 l 439 93 q 368 26 401 56 q 214 169 349 46 q 18 375 79 292 q 279 651 74 446 l 358 733 q 412 686 375 724 q 464 638 449 649 q 347 510 438 604 q 219 371 256 417 q 342 253 257 338 q 476 129 428 168 z "},"=":{"ha":647,"x_min":57,"x_max":592,"o":"m 590 444 l 57 453 l 61 643 l 588 643 l 585 529 q 592 444 585 476 l 590 444 m 590 157 l 57 165 l 61 356 l 588 356 l 585 242 q 592 157 585 189 l 590 157 z "},">":{"ha":504,"x_min":28,"x_max":486,"o":"m 43 115 l 28 129 q 162 253 76 168 q 285 371 247 338 q 158 509 247 415 q 40 638 68 603 q 92 685 56 647 q 146 733 128 724 l 225 651 q 486 375 431 446 q 294 174 424 293 q 136 26 164 54 q 65 93 103 56 l 43 115 z "},"?":{"ha":626,"x_min":22,"x_max":600,"o":"m 315 246 l 240 247 q 204 246 219 247 l 203 246 q 197 276 197 251 l 200 329 q 254 494 218 442 q 290 547 264 513 q 376 704 376 660 q 324 765 376 746 q 294 775 306 775 q 267 769 282 775 q 244 747 253 763 q 192 689 214 697 q 142 686 160 686 l 22 692 l 22 693 q 105 890 28 803 q 296 982 182 976 q 326 983 311 983 q 518 913 438 983 q 599 740 599 843 q 532 563 599 646 q 490 513 517 542 q 449 467 463 485 q 381 297 400 399 q 374 264 374 274 q 375 250 374 254 l 375 249 q 315 246 353 246 m 199 1 q 194 75 194 25 l 197 163 q 288 174 224 174 q 371 165 353 174 l 369 131 q 363 3 363 24 l 363 0 l 360 0 l 203 1 l 199 1 z "},"@":{"ha":783,"x_min":46,"x_max":740,"o":"m 268 122 q 422 96 313 96 q 685 172 531 96 l 738 58 q 640 9 697 33 q 544 -21 582 -15 q 426 -32 496 -32 q 311 -28 357 -32 q 125 74 189 -11 q 79 169 100 110 q 56 271 58 229 q 46 522 46 436 l 46 564 q 115 819 49 733 q 318 911 174 893 q 389 915 339 915 q 515 905 439 915 q 653 836 590 894 q 713 742 692 801 q 737 639 733 682 q 740 528 740 596 l 740 453 q 731 327 740 379 q 681 245 722 275 q 581 214 640 215 q 524 232 554 214 q 499 260 508 247 q 383 222 453 222 q 271 271 314 222 q 228 424 228 319 q 286 592 228 525 q 359 643 308 621 q 461 665 410 665 q 549 642 514 665 q 563 599 563 625 l 561 554 q 560 474 560 531 q 589 329 560 335 q 606 376 599 336 q 611 456 611 419 q 610 528 611 493 l 610 567 q 511 771 601 721 q 435 792 481 786 q 375 797 390 797 q 199 676 236 797 q 182 603 185 632 q 175 444 175 528 q 189 279 175 361 q 268 122 207 161 m 346 401 l 346 397 q 360 363 346 372 q 384 353 374 353 q 406 358 394 353 q 443 452 443 374 q 450 531 443 531 q 432 532 440 532 q 365 499 382 532 q 346 401 346 468 z "},"A":{"ha":603,"x_min":6,"x_max":607,"o":"m 218 972 q 244 974 238 975 q 281 972 251 972 q 389 979 310 972 l 503 488 l 607 1 l 607 0 q 526 -7 572 -7 q 421 6 481 -7 l 419 6 q 389 117 410 32 q 354 232 368 203 q 328 236 349 236 l 268 233 q 240 121 257 207 q 207 1 224 35 q 182 -1 194 -1 l 8 1 q 6 3 7 1 q 33 160 7 7 q 110 544 60 313 q 218 972 160 775 m 258 397 q 361 397 310 397 q 308 688 328 688 q 297 667 303 688 q 258 397 292 646 z "},"B":{"ha":663,"x_min":56,"x_max":647,"o":"m 56 303 l 58 775 q 57 961 58 894 l 58 963 q 238 993 169 993 q 365 985 307 993 q 480 949 422 978 q 574 857 538 919 q 610 699 610 794 q 542 489 610 603 q 552 456 535 476 q 574 428 569 435 q 597 399 579 422 q 618 365 614 375 q 633 331 622 354 q 645 291 643 308 q 647 250 647 274 q 641 190 647 226 q 614 117 635 154 q 567 58 593 81 q 501 22 542 36 q 296 -6 425 -7 q 190 -3 264 -6 l 92 3 q 61 6 68 3 q 56 303 56 99 m 261 194 l 314 193 q 388 205 369 193 q 418 229 407 217 q 433 276 433 250 q 422 332 433 303 q 363 379 403 369 q 301 387 342 385 q 254 390 261 389 q 238 276 238 325 q 258 196 238 226 l 261 194 m 250 743 l 249 650 q 256 583 249 604 q 308 579 285 579 q 417 625 393 579 q 435 678 435 658 q 429 708 435 697 q 368 757 408 749 q 299 765 328 765 q 250 756 269 765 q 250 743 250 753 z "},"C":{"ha":678,"x_min":43,"x_max":656,"o":"m 500 396 l 563 396 q 636 389 619 396 q 650 289 650 336 q 539 49 650 140 q 365 -15 464 -14 q 301 -19 336 -19 q 214 -8 267 -19 q 109 49 161 3 q 50 169 57 96 q 44 445 44 288 q 44 678 44 603 q 44 776 44 754 q 61 839 44 799 q 138 960 86 913 q 208 992 165 981 q 299 1008 261 1008 q 485 965 417 1008 q 654 692 654 857 q 638 585 654 640 q 557 578 606 578 q 435 590 508 578 q 431 638 432 606 q 426 689 429 669 q 388 765 418 747 q 356 775 371 775 q 310 770 340 775 q 268 753 281 765 q 261 739 264 750 q 249 553 249 706 q 254 339 249 400 q 333 211 265 231 q 349 210 342 210 q 446 333 442 210 q 450 397 447 382 q 500 396 463 396 z "},"D":{"ha":669,"x_min":54,"x_max":642,"o":"m 232 975 l 361 974 q 394 974 381 974 q 480 931 439 963 q 546 857 521 899 q 629 653 603 768 q 642 565 639 624 q 639 501 640 544 q 636 432 638 457 q 627 328 632 354 q 622 303 622 303 q 621 301 621 303 q 444 7 575 169 q 79 3 322 3 l 78 1 q 54 476 54 171 l 57 825 q 56 954 57 901 l 60 960 q 232 975 125 975 m 254 569 l 254 422 q 256 308 254 354 q 297 297 269 297 q 375 308 346 297 q 418 353 397 322 q 457 476 457 413 q 443 567 457 522 q 361 675 415 657 q 307 679 333 679 q 257 674 281 679 l 253 674 l 253 668 q 254 569 254 635 z "},"E":{"ha":668,"x_min":56,"x_max":646,"o":"m 279 196 l 585 188 q 643 189 617 188 l 643 186 q 646 103 646 153 q 632 4 646 53 l 238 0 q 63 7 142 0 l 56 658 q 64 957 56 815 q 468 969 299 969 q 639 965 638 969 q 643 903 643 936 l 639 768 l 639 767 q 478 753 578 753 l 406 753 q 275 750 328 753 l 271 750 l 269 749 l 265 628 q 272 585 265 592 q 443 581 347 581 l 443 579 q 449 521 449 575 l 446 386 q 352 378 417 378 q 278 371 288 378 q 272 298 272 342 q 278 197 272 254 l 279 196 z "},"F":{"ha":686,"x_min":57,"x_max":681,"o":"m 490 363 q 313 342 490 363 l 311 342 q 300 1 303 247 q 153 -4 243 -4 q 57 3 64 -4 l 60 943 l 60 944 q 381 968 196 968 q 681 947 565 968 l 681 742 q 310 719 378 726 q 296 656 296 688 q 305 608 296 624 q 315 593 314 593 q 397 589 353 589 q 490 593 440 589 q 494 535 494 582 l 493 429 q 494 365 493 390 q 490 363 494 363 z "},"G":{"ha":668,"x_min":38,"x_max":638,"o":"m 424 331 l 369 331 q 339 333 344 331 q 336 404 336 363 q 333 479 336 446 l 333 481 q 335 482 333 482 q 338 483 336 482 q 395 497 358 496 q 463 497 432 497 q 556 493 493 497 q 622 489 619 489 l 625 489 l 626 488 q 638 313 638 392 q 626 174 638 233 q 494 8 614 53 q 319 -21 390 -21 q 197 1 247 -21 q 117 61 147 22 q 53 260 68 125 q 38 483 38 414 q 54 772 38 668 q 135 919 71 875 q 328 975 200 975 q 542 909 456 975 q 628 717 628 843 q 624 660 628 686 q 551 655 621 656 q 449 658 482 654 q 354 774 414 774 q 330 775 342 775 q 301 774 318 775 q 273 762 283 772 q 249 704 263 751 q 228 508 228 631 q 235 306 228 385 q 279 197 243 226 q 330 183 300 183 q 397 197 360 183 q 440 247 432 213 q 447 293 444 264 q 442 331 449 322 q 424 331 436 331 z "},"H":{"ha":693,"x_min":53,"x_max":651,"o":"m 99 968 l 190 972 q 236 967 221 972 q 248 788 243 911 q 265 601 253 665 l 267 601 q 319 597 283 597 q 417 603 356 597 l 418 603 q 426 797 426 703 q 424 965 426 890 q 531 983 478 983 q 614 981 583 983 l 651 8 q 542 1 614 1 q 457 0 469 1 l 456 0 q 444 195 446 64 q 435 383 442 326 l 433 385 q 354 392 394 392 q 272 382 314 392 q 269 283 269 347 l 271 128 q 264 10 271 46 q 208 0 247 0 l 110 6 q 75 1 83 6 q 60 390 65 131 q 54 772 54 650 q 56 969 54 894 l 56 971 l 60 971 q 99 968 74 968 z "},"I":{"ha":361,"x_min":53,"x_max":308,"o":"m 72 983 l 122 981 q 275 976 238 976 l 308 976 l 308 971 l 299 308 q 307 7 299 199 q 224 -8 303 -8 l 81 -4 q 54 -6 60 -4 q 61 232 61 85 l 54 711 q 65 981 54 889 l 65 983 q 72 983 68 983 z "},"J":{"ha":643,"x_min":4,"x_max":597,"o":"m 221 397 l 221 389 q 304 231 232 235 q 321 229 313 229 q 366 256 347 229 q 389 328 385 282 q 385 716 385 558 q 388 976 385 874 l 388 986 l 590 989 q 590 946 590 969 l 597 535 q 596 465 597 490 q 594 390 594 440 q 591 315 593 340 q 584 244 589 289 q 568 171 579 199 q 542 111 557 143 q 435 22 511 51 q 298 -12 365 -12 q 175 0 231 -12 q 83 60 121 15 q 4 361 4 156 q 6 400 4 381 q 98 410 44 410 q 221 397 151 410 z "},"K":{"ha":638,"x_min":53,"x_max":643,"o":"m 643 6 q 563 -1 611 -1 l 450 3 q 337 200 404 56 q 258 365 269 344 q 257 297 257 338 l 263 7 q 194 -3 225 -3 q 60 7 101 -3 q 53 225 53 54 l 63 971 q 94 971 76 971 l 249 968 q 250 801 250 915 q 251 635 250 688 q 275 666 251 636 q 358 807 299 696 q 453 969 417 918 q 488 969 464 969 l 574 969 q 642 965 624 969 q 524 718 617 878 q 406 499 431 558 l 643 6 z "},"L":{"ha":640,"x_min":50,"x_max":639,"o":"m 635 140 l 639 46 q 634 15 639 28 q 624 1 629 3 q 610 0 619 0 q 599 0 610 0 q 578 0 592 0 l 297 -4 q 50 -1 199 -4 l 50 24 q 61 504 61 450 l 54 976 q 158 989 79 989 q 276 972 238 989 q 274 806 274 913 l 278 296 q 278 221 278 251 l 278 219 q 317 222 286 222 l 619 211 q 638 211 633 211 l 635 140 z "},"M":{"ha":696,"x_min":57,"x_max":642,"o":"m 633 -1 q 551 3 600 3 l 450 0 q 445 237 449 25 q 431 540 442 449 q 403 472 421 525 q 343 338 353 338 q 319 366 333 338 q 298 415 306 394 q 283 456 290 436 q 269 494 275 476 q 257 531 264 511 q 250 315 250 443 q 261 4 250 188 q 167 -3 222 -3 l 67 0 q 61 10 64 0 q 58 277 58 19 q 61 953 58 535 q 125 961 67 961 l 226 960 q 250 960 244 960 l 251 960 q 301 854 271 939 q 343 750 331 769 q 351 745 347 746 q 360 763 354 744 q 375 808 367 781 q 393 867 383 836 q 433 963 418 943 q 457 961 444 961 l 639 968 q 638 875 638 931 l 640 581 q 638 442 640 493 l 633 -1 z "},"N":{"ha":692,"x_min":54,"x_max":635,"o":"m 633 139 l 635 28 l 635 0 q 589 -7 614 -7 l 461 0 q 293 385 333 275 l 279 426 q 261 468 265 468 q 251 250 251 468 q 253 0 251 32 q 192 -7 226 -7 l 58 1 l 58 99 l 54 600 q 67 972 54 821 q 123 978 90 978 q 200 974 156 978 q 244 964 244 969 q 280 886 258 928 q 314 815 301 844 q 378 681 326 785 q 433 576 431 576 q 443 653 443 583 l 439 854 q 442 978 439 886 q 542 986 489 986 q 633 978 594 986 l 633 531 q 635 293 635 453 l 633 139 z "},"O":{"ha":671,"x_min":39,"x_max":633,"o":"m 633 650 l 629 458 q 625 314 629 364 l 621 268 q 568 81 614 154 q 425 -4 526 24 q 331 -19 372 -19 q 244 -16 289 -19 q 152 8 199 -12 q 83 79 106 29 q 50 233 53 132 q 39 492 39 446 q 43 669 39 601 q 117 907 46 825 q 149 932 133 924 q 331 972 229 972 q 550 907 464 972 q 607 822 590 871 q 627 744 621 790 q 633 650 633 699 m 456 344 l 458 417 l 458 483 l 456 578 q 450 657 450 631 q 378 775 443 743 q 340 783 358 783 l 269 756 q 204 660 221 717 q 190 530 190 592 q 192 443 190 468 q 218 236 201 289 q 329 175 247 175 q 428 218 389 175 q 451 262 450 249 q 453 299 453 275 q 456 344 454 322 z "},"P":{"ha":690,"x_min":51,"x_max":672,"o":"m 56 401 l 57 543 q 51 965 57 819 q 244 990 143 990 q 440 965 344 990 q 601 867 536 940 q 672 682 667 794 l 672 681 q 539 428 672 526 q 346 361 447 361 q 292 365 319 361 q 293 266 293 344 q 297 17 293 188 l 297 15 q 293 14 294 14 q 177 3 254 3 q 61 8 100 3 q 56 401 56 128 m 256 671 q 267 563 256 597 l 271 563 q 403 575 368 563 q 454 603 439 588 q 472 647 472 626 q 429 740 472 715 q 317 779 381 779 q 272 776 289 779 q 254 771 256 772 q 256 722 256 746 l 256 671 z "},"Q":{"ha":688,"x_min":42,"x_max":650,"o":"m 594 108 q 621 65 621 76 q 615 44 621 54 q 603 29 608 33 q 583 14 597 25 q 531 -11 544 -11 q 472 33 503 -11 q 414 3 456 14 q 350 -8 372 -8 q 125 75 213 -8 q 81 131 94 103 q 62 174 68 160 q 52 214 56 189 q 46 252 49 239 q 42 295 43 265 q 42 336 42 325 l 42 568 q 72 858 42 742 q 169 954 92 917 q 353 992 246 992 q 514 965 461 992 q 610 836 567 939 q 650 511 650 710 q 647 387 650 422 q 644 322 644 351 q 633 229 642 260 q 625 185 631 204 q 594 108 619 165 m 213 476 l 211 357 q 224 238 211 272 q 349 160 253 160 q 374 161 364 160 l 343 193 q 314 244 314 228 q 319 267 314 261 q 340 281 325 274 q 359 292 354 289 q 373 304 364 296 q 390 317 382 313 q 408 322 399 322 q 427 310 418 322 q 445 281 436 299 q 464 253 454 263 q 469 297 467 261 q 474 343 472 332 q 476 467 476 354 q 469 653 476 579 q 435 756 463 726 q 338 785 408 785 q 247 767 268 785 q 213 476 213 735 z "},"R":{"ha":719,"x_min":46,"x_max":717,"o":"m 717 4 l 536 -1 q 488 1 501 -1 l 486 1 q 293 350 386 235 l 290 354 q 288 260 288 331 q 297 15 288 190 q 143 0 258 0 l 72 0 q 56 0 58 0 q 61 438 61 0 q 46 971 61 876 q 290 994 208 994 q 411 990 371 994 q 558 943 492 986 q 697 694 688 860 q 699 681 699 688 q 657 546 699 611 q 476 425 599 432 l 469 425 l 469 424 q 583 247 483 399 q 717 4 683 94 m 257 606 q 335 601 300 601 q 397 606 369 601 q 457 697 457 618 q 422 772 457 747 q 349 799 393 799 q 249 776 306 799 q 251 693 250 757 q 256 606 251 629 l 257 606 z "},"S":{"ha":674,"x_min":15,"x_max":651,"o":"m 76 292 l 229 288 q 294 206 233 226 q 342 197 315 197 q 393 219 368 197 q 418 276 418 240 q 396 344 418 322 q 344 381 368 372 q 301 395 321 390 q 275 401 282 400 q 218 413 224 411 q 124 460 169 422 q 31 674 31 549 q 103 864 31 775 q 215 949 150 921 q 344 971 275 971 q 524 933 442 971 q 628 828 594 897 q 650 738 650 782 q 643 658 650 694 l 642 658 q 528 649 581 649 q 433 660 475 649 q 436 679 436 669 q 405 735 436 713 q 351 757 374 757 q 260 657 250 757 q 350 597 276 608 q 486 550 424 589 q 590 451 549 511 q 643 299 643 383 q 613 153 643 214 q 510 32 581 71 q 356 -7 439 -7 q 189 27 268 -7 q 63 124 110 61 q 17 261 17 188 q 17 278 17 269 l 17 286 q 76 292 25 292 z "},"T":{"ha":615,"x_min":13,"x_max":604,"o":"m 199 13 l 200 200 q 189 739 200 467 l 188 740 q 94 754 163 753 q 21 757 25 756 q 13 852 13 774 q 15 975 13 931 l 14 978 q 192 981 111 981 q 375 980 272 981 q 600 965 478 979 q 603 864 603 919 q 594 750 603 808 q 536 753 578 753 q 425 750 494 753 l 421 750 q 418 622 418 744 q 426 11 418 500 l 426 8 q 329 3 396 3 l 294 4 q 199 -1 228 4 q 199 13 199 0 z "},"U":{"ha":701,"x_min":51,"x_max":658,"o":"m 449 933 l 569 943 q 651 929 629 943 q 657 606 657 792 q 635 210 657 419 q 564 53 622 115 q 360 -22 493 -22 q 111 68 203 -22 q 51 204 54 124 l 58 814 q 56 944 58 942 l 57 944 l 160 947 q 253 938 221 947 l 253 936 q 247 647 247 817 q 265 254 247 478 q 349 192 283 192 q 392 203 369 192 q 436 261 428 221 q 444 624 442 388 q 449 933 447 860 z "},"V":{"ha":611,"x_min":22,"x_max":618,"o":"m 388 1 l 300 -4 q 185 7 218 -4 q 22 946 64 443 l 22 947 q 122 967 39 967 q 219 961 204 967 q 228 836 224 940 q 293 310 238 542 q 365 682 332 472 q 415 960 397 892 q 418 963 415 963 q 519 956 451 956 q 618 950 588 956 q 388 1 550 588 z "},"W":{"ha":646,"x_min":32,"x_max":619,"o":"m 426 964 q 540 972 465 972 q 619 967 614 972 q 574 499 607 819 q 528 7 542 178 q 481 4 519 4 l 414 4 q 373 121 397 26 q 332 240 349 215 l 331 240 q 290 126 313 222 q 256 10 268 31 q 192 3 217 3 q 135 7 167 3 l 133 7 q 111 161 131 29 l 88 331 q 32 965 38 685 l 32 967 q 104 974 78 974 q 231 969 131 974 q 235 703 235 922 q 260 390 236 483 q 325 643 325 629 q 363 516 332 638 q 401 372 393 394 q 415 667 410 453 q 426 963 419 882 l 426 964 z "},"X":{"ha":606,"x_min":-1,"x_max":611,"o":"m 553 4 l 464 1 q 403 7 426 1 l 401 8 q 356 162 382 50 q 307 319 331 274 l 306 321 q 253 159 282 268 q 201 3 224 50 q 103 0 160 0 q 13 13 47 0 q 82 228 26 61 q 157 482 138 394 q 98 697 129 611 q 61 797 67 782 q -1 957 15 925 q 111 963 78 963 q 176 963 153 963 q 203 961 199 963 q 210 956 208 958 q 301 649 285 694 q 356 821 321 693 q 397 965 392 949 l 397 967 q 610 972 463 972 l 611 972 l 558 819 q 460 474 481 606 q 526 219 475 385 q 589 3 576 54 q 553 4 576 4 z "},"Y":{"ha":604,"x_min":15,"x_max":625,"o":"m 22 961 l 142 969 q 207 958 183 969 q 253 803 219 899 q 314 654 288 708 q 374 809 335 692 q 426 956 414 926 q 538 965 474 965 q 625 963 603 965 l 625 961 q 420 470 571 788 q 217 0 269 153 q 182 1 206 1 l 51 -3 q 18 -1 29 -3 l 15 -1 q 197 479 61 142 l 197 482 q 110 722 178 563 q 22 961 42 882 z "},"Z":{"ha":658,"x_min":18,"x_max":632,"o":"m 631 907 l 626 743 l 626 742 q 436 453 565 638 q 269 210 307 268 l 268 208 q 470 223 375 222 q 618 226 565 224 l 618 222 q 622 138 622 192 q 615 0 622 85 l 615 -3 q 318 6 460 6 q 47 -1 176 6 q 35 99 35 35 l 36 149 q 35 221 36 190 q 192 488 88 340 q 291 627 225 536 q 375 743 357 718 q 40 761 239 761 q 29 849 29 781 q 21 951 29 917 l 21 953 q 18 958 21 956 q 278 969 119 969 l 626 964 q 631 907 631 951 z "},"[":{"ha":446,"x_min":58,"x_max":413,"o":"m 244 635 l 256 199 l 256 197 q 338 187 286 189 q 404 183 390 185 q 410 63 410 103 q 408 1 410 22 l 274 0 q 60 -3 86 0 l 60 3 q 61 193 61 103 l 60 457 q 74 978 60 775 l 74 979 q 158 983 107 983 l 351 978 q 413 981 389 978 q 404 817 413 843 l 400 817 q 385 817 393 817 l 281 813 q 253 814 264 813 l 251 814 q 244 635 244 707 z "},"\\":{"ha":572,"x_min":26,"x_max":546,"o":"m 540 -1 q 405 1 435 1 q 367 3 375 1 q 363 10 364 6 l 283 210 q 202 437 242 314 q 151 592 163 560 q 119 678 140 624 q 54 879 75 803 q 26 974 31 967 q 93 983 47 983 l 161 982 q 210 985 192 982 q 256 829 236 885 q 278 766 275 774 q 300 699 282 758 q 385 461 318 640 q 461 247 451 282 q 494 160 482 200 q 519 88 507 121 q 544 9 544 19 q 542 -1 544 -1 l 540 -1 z "},"]":{"ha":446,"x_min":33,"x_max":386,"o":"m 94 978 l 288 983 q 372 979 339 983 l 372 978 q 385 489 385 793 q 386 3 385 185 l 386 -3 q 172 0 360 0 l 38 1 q 36 63 36 22 q 42 183 36 103 q 86 186 56 185 q 190 197 160 189 l 190 199 l 201 635 q 194 814 201 707 l 193 814 q 165 813 182 813 l 61 817 q 46 817 53 817 l 42 817 q 33 981 33 843 q 94 978 57 978 z "},"^":{"ha":611,"x_min":15,"x_max":597,"o":"m 597 665 q 567 662 596 667 q 509 655 538 657 q 457 653 481 653 q 393 657 433 653 q 347 697 383 657 q 301 743 311 738 q 253 699 290 739 q 210 658 215 658 q 188 657 206 657 q 15 664 171 657 q 118 783 61 728 q 229 888 175 839 q 306 957 283 936 l 597 665 z "},"_":{"ha":903,"x_min":57,"x_max":849,"o":"m 60 -206 l 57 -58 l 847 -51 l 849 -51 q 842 -128 842 -96 l 843 -208 l 60 -206 z "},"`":{"ha":354,"x_min":18,"x_max":346,"o":"m 346 732 q 251 724 313 724 q 160 726 190 724 q 88 797 149 743 q 18 861 28 851 l 114 958 q 240 839 151 929 q 346 732 328 749 z "},"a":{"ha":661,"x_min":26,"x_max":615,"o":"m 485 3 l 425 -1 q 408 22 408 4 q 411 55 408 40 q 414 78 414 69 q 328 20 379 43 q 231 -3 278 -3 q 115 61 164 -3 q 26 369 26 178 q 94 597 26 507 q 260 690 161 688 q 323 688 303 690 q 366 672 343 686 q 401 626 389 657 q 403 666 400 643 q 407 697 407 689 q 474 699 407 699 q 610 692 571 694 q 613 658 613 669 l 613 644 q 611 546 611 608 l 614 221 q 612 76 614 108 q 610 24 610 43 q 592 -1 610 4 l 575 -1 l 485 3 m 333 504 q 307 504 333 504 q 247 478 281 504 q 206 420 214 453 q 197 333 197 388 q 231 235 197 278 q 321 192 264 192 q 389 217 365 192 q 406 269 404 233 q 407 331 407 306 l 407 360 q 397 485 407 465 q 333 504 386 504 z "},"b":{"ha":644,"x_min":46,"x_max":615,"o":"m 57 978 q 158 983 85 983 q 232 976 232 983 l 232 961 l 239 843 q 238 792 239 828 l 236 660 q 335 694 242 686 q 403 697 358 697 q 504 677 447 697 q 588 579 561 657 q 615 424 615 501 q 612 316 614 347 q 603 240 610 285 q 588 167 597 196 q 560 107 578 139 q 519 56 543 75 q 356 3 454 3 q 253 64 283 3 q 239 58 247 76 l 238 13 q 236 3 238 4 q 157 -1 203 -1 l 49 1 q 47 147 47 61 l 57 886 l 57 978 m 315 536 q 244 510 257 536 q 231 404 231 485 q 233 294 231 324 q 244 233 236 264 q 325 175 263 175 q 422 229 388 175 q 457 347 457 283 q 447 438 457 411 q 315 536 432 536 z "},"c":{"ha":614,"x_min":32,"x_max":588,"o":"m 424 269 l 533 272 q 585 267 575 272 q 546 49 571 74 q 480 1 524 17 q 414 -15 436 -14 q 371 -17 392 -17 l 224 -12 q 104 49 153 0 q 53 131 69 79 q 36 236 36 183 q 32 449 36 383 q 37 530 32 499 q 63 631 42 561 q 140 691 81 671 q 241 710 199 711 q 303 710 283 710 l 346 711 q 533 651 472 711 q 576 572 567 629 q 583 513 582 538 q 586 478 585 489 q 588 401 588 447 q 528 397 568 397 q 411 408 489 397 q 376 481 404 460 q 324 501 347 501 q 236 467 264 501 q 224 433 228 460 q 218 344 219 407 l 215 251 q 244 198 215 217 q 308 179 274 179 q 372 194 350 179 q 408 269 394 210 q 424 269 413 269 z "},"d":{"ha":643,"x_min":29,"x_max":599,"o":"m 406 843 l 413 961 l 413 976 q 486 983 413 983 q 588 978 560 983 l 588 886 q 597 147 588 886 q 596 1 597 61 l 488 -1 q 408 3 442 -1 q 407 13 407 4 l 406 58 q 392 64 397 76 q 289 3 361 3 q 263 4 276 3 q 158 34 201 8 q 91 94 115 60 q 53 183 67 128 q 31 385 32 267 q 142 678 28 638 q 242 697 197 697 q 408 660 400 697 l 406 803 q 406 843 406 828 m 197 438 q 188 347 188 411 q 222 229 188 283 q 317 175 257 175 q 396 223 378 175 q 414 378 414 271 q 401 510 414 485 q 329 536 388 536 q 197 438 213 536 z "},"e":{"ha":617,"x_min":28,"x_max":592,"o":"m 354 -18 l 228 -14 q 156 11 189 -8 q 57 158 86 60 q 28 358 28 256 q 29 394 28 376 q 60 588 40 535 q 197 699 94 667 q 304 717 253 717 q 403 704 356 717 q 592 417 592 672 q 589 360 592 389 q 455 347 558 351 q 298 343 351 343 q 217 349 244 343 l 217 306 l 218 275 q 219 262 218 265 q 221 250 219 258 q 224 238 222 242 q 303 147 247 165 q 335 144 315 144 q 383 169 356 144 q 411 257 411 194 q 411 267 411 261 q 426 267 415 267 l 535 269 q 586 264 575 269 q 547 47 572 68 q 436 -12 510 -4 q 354 -18 390 -18 m 351 457 l 426 454 q 436 456 433 454 q 439 464 439 457 l 439 474 q 385 564 439 536 q 319 578 363 578 q 221 488 232 578 q 219 470 219 479 q 226 459 219 461 q 290 457 232 457 q 351 457 347 457 z "},"f":{"ha":526,"x_min":15,"x_max":529,"o":"m 518 657 q 517 605 517 654 q 510 483 517 556 q 300 494 336 493 l 300 6 q 268 7 288 7 l 140 0 q 121 1 129 0 q 114 182 114 36 l 118 493 q 19 492 57 493 l 15 661 q 115 660 86 661 q 114 690 114 675 q 142 824 114 760 q 256 929 174 901 q 460 957 339 957 q 519 956 489 957 q 528 883 528 929 q 519 768 528 836 q 496 768 517 768 q 346 751 475 768 q 301 693 301 744 q 306 657 301 676 l 518 657 z "},"g":{"ha":649,"x_min":31,"x_max":603,"o":"m 188 329 l 188 317 q 229 196 188 246 q 328 156 261 156 q 397 186 382 156 q 414 249 408 204 q 396 472 414 401 q 313 521 376 521 q 246 496 272 521 q 190 383 200 443 q 188 329 188 371 m 488 696 l 596 693 q 601 306 601 494 q 598 23 601 117 q 594 -92 594 -71 l 594 -126 q 582 -181 594 -162 q 403 -279 519 -279 l 285 -278 q 85 -175 156 -278 q 61 -72 61 -132 q 63 -58 61 -65 q 146 -49 97 -49 q 240 -57 194 -49 q 278 -126 240 -103 q 318 -140 299 -140 q 406 -69 389 -140 q 408 -22 408 -35 l 407 8 q 408 33 407 21 q 336 1 383 6 q 290 -1 321 0 q 250 -3 260 -1 q 69 85 111 -3 q 31 247 38 144 l 31 308 q 36 425 31 393 q 49 497 42 457 q 68 558 57 538 q 97 606 79 578 q 138 650 115 635 q 286 690 201 690 q 400 625 371 690 q 406 629 406 622 q 406 660 407 636 q 408 692 404 683 q 488 696 446 696 z "},"h":{"ha":622,"x_min":47,"x_max":579,"o":"m 147 1004 l 213 1011 q 231 1006 225 1011 q 232 619 232 999 q 267 640 260 635 q 411 689 332 689 q 546 644 490 689 q 576 508 572 621 q 578 393 578 457 l 574 85 q 575 3 574 33 q 401 -3 538 -3 q 399 152 399 39 q 397 295 399 265 q 394 340 396 325 q 392 363 393 354 q 390 385 392 371 q 385 407 388 399 q 381 425 383 415 q 307 468 365 468 q 253 448 281 468 q 224 382 226 428 q 222 338 222 364 l 228 107 q 222 10 228 40 l 222 4 q 168 -4 210 -4 l 92 -3 q 50 -4 67 -3 l 47 703 q 50 1004 47 896 q 99 1003 75 1003 l 147 1004 z "},"i":{"ha":288,"x_min":46,"x_max":243,"o":"m 54 703 l 93 701 q 175 699 144 699 q 219 699 206 699 l 243 699 l 243 694 l 236 236 q 242 8 236 165 q 178 -1 240 -1 l 60 0 q 46 0 49 0 q 51 182 51 68 l 47 504 q 54 701 47 635 l 54 703 m 242 819 q 183 807 233 807 l 74 810 q 54 810 63 810 l 49 974 q 49 1001 49 988 l 238 997 l 242 819 z "},"j":{"ha":283,"x_min":-176,"x_max":236,"o":"m 235 365 l 236 158 q 214 -137 236 0 q -106 -261 161 -261 q -167 -260 -135 -261 q -175 -186 -175 -233 q -167 -72 -175 -139 q -121 -74 -151 -74 q -33 -62 -90 -74 q 47 -17 24 -51 q 49 236 49 49 q 53 504 49 424 l 53 690 q 85 689 65 689 l 213 696 q 232 694 224 696 q 236 597 236 664 l 233 419 q 235 365 233 381 m 233 819 q 178 807 225 807 l 69 810 q 50 810 58 810 l 44 974 q 44 1001 44 988 l 229 997 l 233 819 z "},"k":{"ha":604,"x_min":47,"x_max":615,"o":"m 53 1008 l 188 1011 q 242 1008 221 1011 l 242 704 l 239 572 q 242 524 239 543 q 319 625 276 554 q 383 722 361 696 q 443 714 389 714 l 592 718 q 603 718 600 718 q 374 407 558 650 q 435 310 393 376 l 500 204 q 615 0 563 104 l 458 -6 q 392 0 417 -6 q 324 128 371 33 q 242 268 278 222 l 244 125 q 236 0 244 46 q 218 0 231 0 l 101 -3 q 53 0 69 -3 q 47 260 47 51 l 53 1008 z "},"l":{"ha":286,"x_min":42,"x_max":243,"o":"m 243 1006 l 236 285 q 242 8 236 158 q 178 -1 240 -1 l 60 0 q 46 0 49 0 q 53 221 53 85 l 43 740 q 54 1010 43 910 l 243 1006 z "},"m":{"ha":950,"x_min":46,"x_max":907,"o":"m 147 692 l 213 699 q 231 693 225 699 q 233 650 233 675 l 233 619 q 268 640 261 635 q 413 689 333 689 q 547 644 492 689 q 561 621 556 636 q 594 640 592 639 q 739 689 660 689 q 874 644 818 689 q 904 508 900 621 q 906 393 906 457 l 901 85 q 903 3 901 33 q 729 -3 865 -3 q 726 152 726 39 q 725 295 726 265 q 722 340 724 325 q 720 363 721 354 q 717 385 719 371 q 713 407 715 399 q 708 425 711 415 q 638 468 693 468 q 579 447 607 468 q 579 407 579 431 l 575 86 q 576 3 575 32 q 403 -3 539 -3 q 400 152 400 39 q 399 295 400 265 q 396 340 397 325 q 394 363 394 354 q 391 385 393 371 q 387 407 389 399 q 381 425 385 415 q 308 468 367 468 q 255 448 282 468 q 225 382 228 428 q 224 338 224 364 l 229 107 q 224 10 229 40 l 224 4 q 169 -4 211 -4 l 93 -3 q 51 -4 69 -3 l 47 538 q 50 692 47 667 q 99 689 75 689 l 147 692 z "},"n":{"ha":625,"x_min":47,"x_max":582,"o":"m 149 692 l 214 699 q 232 693 226 699 q 235 650 235 675 l 235 619 q 269 640 263 635 q 414 689 335 689 q 549 644 493 689 q 579 508 575 621 q 581 393 581 457 l 576 85 q 578 3 576 33 q 404 -3 540 -3 q 401 152 401 39 q 400 295 401 265 q 397 340 399 325 q 395 363 396 354 q 392 385 394 371 q 388 407 390 399 q 383 425 386 415 q 310 468 368 468 q 256 448 283 468 q 226 382 229 428 q 225 338 225 364 l 231 107 q 225 10 231 40 l 225 4 q 171 -4 213 -4 l 94 -3 q 53 -4 69 -3 l 49 538 q 51 692 49 667 q 100 689 75 689 l 149 692 z "},"o":{"ha":622,"x_min":33,"x_max":590,"o":"m 371 -14 l 224 -10 q 104 51 153 3 q 53 134 69 82 q 35 239 36 186 q 35 350 35 292 q 34 458 35 408 q 37 535 33 508 q 44 576 40 561 q 55 609 49 592 q 63 633 61 626 q 140 694 81 674 q 241 713 199 714 q 303 713 283 713 l 346 714 q 533 653 471 714 q 589 403 582 621 q 590 378 590 386 q 560 75 581 131 q 546 51 553 58 q 480 4 524 19 q 414 -12 436 -11 q 371 -14 392 -14 m 307 183 q 407 244 392 183 q 415 358 415 318 q 411 419 415 399 q 371 492 404 469 q 326 504 350 504 q 278 498 303 504 q 236 469 254 492 q 224 435 228 463 q 218 347 219 408 l 215 258 q 244 202 215 221 q 307 183 272 183 z "},"p":{"ha":644,"x_min":46,"x_max":615,"o":"m 239 -149 l 232 -267 l 232 -282 q 158 -289 232 -289 q 57 -283 85 -289 l 57 -192 q 47 547 57 -192 q 49 693 47 633 l 157 696 q 236 692 203 696 q 238 682 238 690 l 239 636 q 253 631 247 618 q 356 692 283 692 q 397 690 368 692 q 461 673 426 688 q 519 639 496 658 q 560 588 543 619 q 588 527 578 556 q 603 454 597 499 q 615 299 613 389 q 588 115 615 193 q 504 17 561 38 q 403 -3 447 -3 q 236 35 244 -3 q 239 -108 236 35 q 239 -149 239 -133 m 447 257 q 457 347 457 283 q 422 465 457 411 q 327 519 388 519 q 249 472 267 519 q 231 317 231 424 q 244 184 231 210 q 315 158 257 158 q 447 257 432 158 z "},"q":{"ha":643,"x_min":29,"x_max":599,"o":"m 588 -283 q 486 -289 560 -289 q 413 -282 413 -289 l 413 -267 l 406 -149 q 407 -97 406 -133 l 408 35 q 310 0 403 8 q 242 -3 286 -3 q 140 17 197 -3 q 56 115 83 38 q 30 279 29 193 q 35 410 31 365 q 53 511 39 456 q 91 601 67 567 q 158 660 115 635 q 263 690 201 686 q 289 692 276 692 q 392 631 361 692 q 406 636 397 618 l 407 682 q 408 692 407 690 q 488 696 442 696 l 596 693 q 597 547 597 633 l 588 -192 l 588 -283 m 329 158 q 401 184 388 158 q 414 290 414 210 q 411 401 414 371 q 400 461 408 431 q 319 519 382 519 q 222 465 257 519 q 188 347 188 411 q 197 257 188 283 q 329 158 213 158 z "},"r":{"ha":511,"x_min":47,"x_max":497,"o":"m 149 692 l 224 697 q 239 693 235 697 q 240 668 239 678 q 240 646 240 658 q 306 672 250 651 q 429 693 372 693 q 497 690 486 693 l 497 446 q 403 469 426 469 q 337 474 372 474 q 274 461 301 474 q 233 382 233 446 q 236 290 233 378 q 239 10 239 203 l 239 4 q 181 -4 226 -4 l 94 -3 q 53 -4 69 -3 l 49 538 q 51 692 49 667 q 100 689 75 689 l 149 692 z "},"s":{"ha":625,"x_min":15,"x_max":606,"o":"m 104 222 l 221 219 q 267 156 222 179 q 315 142 294 142 q 394 211 396 142 q 396 231 396 217 q 377 263 396 246 q 331 286 358 281 q 176 326 217 308 q 65 407 101 351 q 29 518 29 463 q 69 635 29 581 q 166 706 108 690 q 311 722 224 722 q 485 704 410 722 q 606 481 606 653 q 501 472 550 472 q 407 481 451 472 q 408 494 408 488 q 380 544 408 521 q 318 567 351 567 q 311 567 315 567 q 256 531 271 560 q 247 501 247 517 q 256 469 247 486 q 313 424 271 439 q 558 333 511 394 q 594 215 594 274 q 576 103 594 156 q 336 -22 517 -22 q 324 -22 332 -22 q 306 -22 317 -22 q 98 39 181 -22 q 15 211 15 100 l 15 218 q 104 222 53 222 z "},"t":{"ha":538,"x_min":15,"x_max":528,"o":"m 139 956 l 267 949 q 299 950 286 949 l 299 764 l 300 686 q 510 697 336 688 q 522 642 522 683 l 517 544 q 518 524 517 532 l 303 524 q 304 243 303 326 q 385 197 328 208 q 472 186 442 186 q 518 188 503 186 q 528 73 528 119 q 518 0 528 26 q 456 -1 486 -1 q 138 122 190 -1 q 115 472 115 257 q 115 521 115 496 q 15 519 86 519 l 19 689 q 118 688 57 688 l 115 846 q 119 954 115 914 q 139 956 128 956 z "},"u":{"ha":625,"x_min":43,"x_max":578,"o":"m 476 3 l 411 -4 q 393 1 399 -4 q 390 44 390 19 l 390 75 q 356 54 363 60 q 211 6 290 6 q 76 50 132 6 q 46 186 50 74 q 44 301 44 238 l 49 610 q 47 692 49 661 q 221 697 85 697 q 224 542 224 656 q 225 399 224 429 q 228 355 226 369 q 230 332 229 340 q 233 310 231 324 q 237 288 235 296 q 242 269 239 279 q 315 226 257 226 q 369 247 342 226 q 399 313 396 267 q 400 351 400 328 l 393 589 q 400 685 393 656 l 400 690 q 454 699 413 699 l 531 697 q 572 699 556 697 l 576 157 q 574 3 576 28 q 525 6 550 6 l 476 3 z "},"v":{"ha":596,"x_min":15,"x_max":594,"o":"m 408 689 l 551 694 q 594 693 575 694 q 494 317 550 571 q 421 -1 438 63 q 318 -8 383 -8 l 160 -4 q 15 694 92 414 q 74 692 38 692 l 154 693 q 208 690 190 693 q 233 542 217 646 q 300 215 274 285 q 352 449 319 268 q 408 689 385 631 z "},"w":{"ha":949,"x_min":15,"x_max":947,"o":"m 75 692 l 156 693 q 210 690 192 693 q 233 542 218 646 q 300 215 272 290 q 340 353 331 306 q 392 597 367 483 l 410 694 q 439 693 424 693 l 525 697 q 564 693 550 697 q 598 480 567 678 q 653 215 629 282 q 714 462 676 274 q 767 689 751 650 l 906 694 q 947 693 928 694 q 847 317 903 571 q 774 -1 790 63 q 678 -8 736 -8 l 529 -4 q 475 318 478 304 q 450 163 465 274 q 421 -1 435 53 q 318 -8 383 -8 l 160 -4 q 15 694 92 414 q 75 692 38 692 z "},"x":{"ha":574,"x_min":3,"x_max":574,"o":"m 214 -1 l 113 -3 q 13 6 33 -3 q 65 166 24 47 q 119 343 106 285 q 83 478 103 425 q 57 550 64 531 q 28 626 50 569 q 3 690 6 682 q 140 694 65 694 q 219 690 215 694 q 285 454 283 458 q 322 578 297 483 q 351 692 346 674 q 572 696 385 696 l 574 696 q 539 604 574 693 q 458 342 475 432 q 508 160 469 279 q 557 0 547 42 q 532 1 547 1 l 464 0 q 356 4 368 0 l 354 4 q 321 114 339 36 q 288 224 303 192 q 251 110 271 188 q 214 -1 231 32 z "},"y":{"ha":624,"x_min":-25,"x_max":613,"o":"m 410 693 l 551 696 q 613 693 592 696 q 531 360 563 506 q 490 168 500 214 q 458 60 479 122 q 415 -43 438 -1 q 353 -128 393 -85 q 267 -197 314 -172 q 38 -247 169 -247 q -8 -246 15 -247 q -25 -149 -25 -196 q -17 -61 -25 -103 l 75 -64 q 142 -50 128 -64 q 167 11 167 -26 q 90 372 167 69 q 38 572 68 460 q 4 694 7 683 q 65 692 26 692 l 153 693 q 210 690 192 693 q 231 574 215 661 q 258 428 247 488 q 318 190 292 263 q 362 440 338 243 q 410 693 386 636 z "},"z":{"ha":633,"x_min":29,"x_max":603,"o":"m 603 690 q 600 561 603 690 q 603 504 600 532 q 452 355 560 458 q 294 194 344 251 q 375 196 318 196 l 474 196 q 596 203 561 196 l 599 10 q 33 1 257 1 q 35 51 35 28 l 31 163 q 31 179 31 172 q 192 347 78 240 q 349 504 306 453 q 39 482 133 494 q 36 547 36 513 l 39 664 q 39 690 39 678 l 425 692 q 461 689 433 689 l 576 693 q 603 690 600 693 z "},"{":{"ha":442,"x_min":13,"x_max":407,"o":"m 328 317 l 326 268 q 407 143 326 150 q 406 1 407 15 q 361 -1 382 -1 q 226 40 283 -1 q 171 150 168 82 q 176 199 176 178 q 175 251 176 221 q 114 386 167 346 q 39 408 83 408 q 27 408 35 408 q 18 410 19 408 q 13 465 13 432 q 21 546 13 499 q 56 544 32 544 q 111 563 81 544 q 176 694 164 590 q 179 732 179 714 l 172 814 q 189 883 172 851 q 267 939 215 931 q 347 944 314 944 q 401 942 379 944 q 406 878 406 911 q 403 813 406 846 q 331 757 336 790 q 328 674 328 718 l 329 588 q 311 520 329 551 q 254 475 293 489 q 328 317 328 435 z "},"|":{"ha":279,"x_min":63,"x_max":218,"o":"m 215 1011 l 218 -39 l 206 -39 l 63 -35 l 63 1008 l 150 1006 q 215 1013 175 1006 l 215 1011 z "},"}":{"ha":442,"x_min":35,"x_max":429,"o":"m 269 814 l 263 732 q 333 560 263 599 q 385 544 361 544 q 421 546 410 544 q 429 465 429 499 q 424 410 429 432 q 415 408 422 408 q 403 408 407 408 q 326 384 358 408 q 281 319 293 360 q 265 222 265 265 q 271 150 265 178 q 216 40 274 82 q 81 -1 158 -1 q 36 1 60 -1 q 35 143 35 15 q 115 268 115 150 l 114 317 q 188 475 114 435 q 131 520 149 489 q 113 588 113 551 l 114 674 q 111 757 114 718 q 94 786 108 774 q 39 813 78 800 q 36 878 36 846 q 40 942 36 911 q 95 944 63 944 q 175 939 128 944 q 253 883 226 931 q 269 814 269 851 z "},"~":{"ha":792,"x_min":24,"x_max":760,"o":"m 751 472 q 760 428 760 464 q 689 239 760 340 q 622 188 658 201 q 553 174 585 174 q 490 185 521 174 q 397 268 425 207 q 329 308 369 308 q 313 308 328 308 q 264 292 297 308 q 235 261 242 278 q 229 226 229 244 q 235 186 229 208 l 235 185 q 134 190 213 190 q 24 189 56 190 q 68 315 36 240 q 132 425 100 389 q 281 488 194 488 q 378 460 332 488 q 423 413 397 446 q 463 371 449 381 q 506 351 485 351 q 558 384 528 351 q 601 467 589 417 q 751 472 625 468 z "}," ":{"ha":278,"x_min":0,"x_max":0,"o":""},"¡":{"ha":300,"x_min":57,"x_max":240,"o":"m 71 876 l 124 875 l 126 875 l 231 876 q 232 797 238 863 q 226 714 226 732 l 226 713 q 168 703 206 703 l 57 710 q 61 876 61 864 l 71 876 m 231 -97 q 123 -107 165 -107 q 60 -100 81 -107 q 64 326 64 136 q 58 635 64 515 q 238 642 85 638 l 239 642 q 239 544 239 610 l 240 154 q 235 -97 240 -31 l 231 -97 z "},"¢":{"ha":486,"x_min":39,"x_max":456,"o":"m 185 576 l 181 467 q 185 368 181 415 q 224 286 188 306 q 225 483 225 385 q 222 656 225 582 q 190 629 196 656 q 185 576 185 604 m 272 569 l 274 286 l 275 286 q 311 338 307 300 q 314 374 313 351 q 317 407 315 397 q 338 406 322 406 l 396 407 q 443 401 433 407 l 443 400 l 450 306 q 395 186 450 233 q 276 131 340 139 l 274 131 l 274 129 q 272 111 272 122 q 274 76 272 100 q 272 42 275 53 q 244 33 256 33 q 226 42 232 33 q 224 91 224 72 q 224 129 225 110 q 200 128 213 128 q 106 156 156 128 q 50 244 57 185 q 40 408 40 321 l 43 614 q 42 640 42 628 q 83 765 42 711 q 183 819 124 819 q 222 814 201 819 q 225 853 225 815 l 225 897 q 247 908 231 908 q 274 903 264 908 l 274 811 l 275 811 q 422 717 369 808 q 456 613 456 658 q 444 535 456 567 l 444 533 q 388 529 415 529 l 306 538 q 303 578 303 549 q 274 658 303 640 q 272 569 272 644 z "},"£":{"ha":675,"x_min":25,"x_max":650,"o":"m 199 514 l 211 514 q 208 750 208 596 q 217 929 208 904 q 379 938 343 929 l 379 936 q 382 721 382 828 q 379 508 382 614 q 510 504 468 504 q 561 507 553 504 l 563 507 q 565 461 565 483 q 564 408 565 439 q 559 356 563 376 q 561 322 556 336 q 461 324 489 324 l 378 321 q 376 309 376 318 q 383 269 376 300 q 393 233 389 238 l 650 218 q 639 3 639 40 q 472 3 597 3 q 208 15 225 3 q 211 126 211 54 q 206 326 211 199 q 67 329 101 329 q 29 329 32 329 q 28 431 29 385 l 25 485 q 26 500 25 490 q 88 515 26 515 l 171 513 q 199 514 189 513 z "},"¤":{"ha":843,"x_min":25,"x_max":818,"o":"m 301 775 l 374 786 q 436 788 394 788 q 543 776 478 788 l 675 925 l 818 803 q 703 672 740 714 q 728 602 722 635 q 735 461 735 569 q 694 278 735 353 q 818 154 781 172 l 792 132 q 731 81 782 128 q 663 35 679 35 q 661 35 663 35 q 597 100 629 71 q 535 165 565 129 q 399 151 464 151 q 278 164 335 151 l 182 35 q 181 35 182 35 q 100 92 165 35 q 25 154 35 150 q 128 278 69 207 l 128 279 q 107 472 107 342 q 128 682 107 601 q 70 750 93 729 q 25 803 47 771 l 168 925 l 301 775 m 472 307 l 493 310 l 496 310 q 576 404 564 318 q 583 447 579 419 q 588 488 586 475 q 590 515 590 500 q 569 590 590 563 q 514 627 549 617 q 428 638 479 638 q 328 628 378 638 q 261 551 271 608 q 256 485 256 522 l 258 396 q 278 335 258 361 q 335 301 299 308 q 399 299 363 299 q 472 307 435 299 z "},"¥":{"ha":736,"x_min":36,"x_max":713,"o":"m 557 475 l 597 476 q 643 471 632 476 l 644 471 l 644 406 q 647 347 644 350 l 647 346 q 606 349 638 349 l 454 344 q 433 314 442 339 q 417 281 422 286 l 644 281 q 647 154 644 167 q 583 154 635 154 q 365 147 532 154 q 331 68 351 122 q 306 1 311 14 l 306 0 l 304 0 q 260 4 293 4 l 139 0 q 110 1 121 0 l 106 1 q 128 76 108 28 q 154 140 149 125 q 108 144 143 144 l 90 143 q 38 153 50 143 l 38 154 q 39 183 39 169 l 38 213 q 44 276 38 257 q 82 275 61 275 l 206 279 l 206 281 q 214 297 210 289 q 222 317 218 306 q 232 339 229 336 l 232 340 l 231 340 q 211 340 228 340 l 110 339 q 39 349 46 339 q 36 375 36 350 l 39 467 l 42 467 q 173 472 88 472 q 286 474 258 472 q 285 475 286 475 q 275 509 285 475 q 199 708 265 543 q 117 961 133 874 q 153 960 132 960 l 269 964 q 317 961 297 964 q 340 883 324 939 q 403 711 374 775 q 513 949 447 792 l 518 951 q 640 963 594 963 q 713 957 686 963 q 508 483 626 703 q 557 475 518 475 z "},"¦":{"ha":204,"x_min":0,"x_max":0,"o":""},"§":{"ha":1204,"x_min":0,"x_max":0,"o":""},"¨":{"ha":485,"x_min":46,"x_max":442,"o":"m 50 725 q 46 789 46 747 l 49 865 q 130 875 78 875 q 200 867 182 875 l 197 836 q 192 726 192 744 l 192 724 l 189 724 l 54 725 l 50 725 m 292 725 q 288 789 288 747 l 290 865 q 372 875 319 875 q 442 867 424 875 l 439 836 q 433 726 433 744 l 433 724 l 431 724 l 296 725 l 292 725 z "},"©":{"ha":768,"x_min":50,"x_max":721,"o":"m 204 176 q 63 343 76 235 q 50 483 50 411 q 56 621 50 556 q 107 739 63 686 q 275 828 164 811 q 402 831 340 831 q 514 822 464 831 q 617 779 564 813 l 633 768 q 711 656 686 732 q 721 578 721 629 q 719 506 721 528 q 711 422 718 483 q 703 346 704 360 q 636 233 686 281 q 456 164 578 175 q 323 157 379 157 q 204 176 267 157 m 275 726 q 192 685 221 715 q 158 617 163 654 q 153 522 153 581 q 160 365 153 464 q 201 290 160 321 q 299 256 243 258 q 387 260 311 257 q 507 272 463 264 q 580 320 551 279 q 614 424 608 361 q 619 519 619 486 q 619 564 619 553 l 618 601 q 481 726 618 699 q 378 733 429 733 l 275 726 m 339 432 q 368 382 342 390 q 375 382 371 382 q 410 400 399 382 l 414 453 q 450 453 417 453 q 488 450 483 454 q 493 403 493 431 q 472 344 493 376 q 382 294 440 294 q 350 293 371 293 q 297 308 329 293 q 261 365 264 322 q 258 478 258 408 q 258 576 258 547 q 266 629 257 604 q 288 665 275 654 q 322 685 300 675 q 364 692 344 692 q 454 653 413 692 q 496 568 496 615 q 489 525 496 547 q 458 524 476 524 q 411 528 440 524 q 389 597 411 586 q 375 600 382 601 q 344 592 351 599 l 340 583 l 339 564 q 338 478 338 508 q 339 432 338 449 z "},"ª":{"ha":383,"x_min":35,"x_max":336,"o":"m 332 1004 l 335 988 l 335 982 q 333 921 333 958 l 335 781 q 332 681 335 713 q 322 651 332 653 l 314 651 l 268 653 l 236 651 q 228 663 228 653 q 230 680 228 672 q 232 692 232 688 q 140 650 193 650 q 61 710 88 650 q 35 841 35 771 q 69 958 35 911 q 153 1004 103 1004 q 210 994 200 1004 q 225 971 221 983 l 228 1007 q 244 1008 228 1008 l 263 1008 l 332 1004 m 126 863 q 121 822 121 851 q 139 771 121 793 q 182 749 157 749 q 217 762 207 749 q 227 787 226 775 q 228 820 228 799 q 228 867 228 842 q 223 900 228 892 q 192 908 218 908 q 126 863 133 908 z "},"«":{"ha":810,"x_min":18,"x_max":783,"o":"m 476 118 l 439 82 q 368 15 401 44 q 214 158 349 35 q 18 364 79 281 q 279 640 74 435 l 358 722 q 412 675 375 713 q 464 626 449 638 q 347 499 438 593 q 219 360 256 406 q 342 242 257 326 q 476 118 428 157 m 783 118 l 746 82 q 675 15 708 44 q 521 158 656 35 q 325 364 386 281 q 586 640 381 435 l 665 722 q 719 675 682 713 q 771 626 756 638 q 653 499 744 593 q 526 360 563 406 q 649 242 564 326 q 783 118 735 157 z "},"¬":{"ha":654,"x_min":28,"x_max":603,"o":"m 29 579 l 28 628 l 28 656 q 315 654 36 656 q 603 653 594 653 q 601 649 601 650 l 603 649 q 601 560 603 633 q 600 417 600 486 l 599 349 l 522 349 l 522 389 l 521 572 q 29 579 32 576 z "},"­":{"ha":513,"x_min":50,"x_max":463,"o":"m 51 346 l 50 394 l 50 422 q 256 424 57 422 q 463 425 454 425 q 460 344 460 410 q 211 344 336 344 l 100 346 l 51 346 z "},"®":{"ha":768,"x_min":50,"x_max":721,"o":"m 204 176 q 63 343 76 235 q 50 483 50 411 q 56 621 50 556 q 107 739 63 686 q 275 828 164 811 q 402 831 340 831 q 514 822 464 831 q 617 779 564 813 l 633 768 q 719 593 714 707 q 721 538 721 563 q 713 433 721 492 q 703 356 706 374 q 636 233 696 290 q 456 164 578 175 q 323 157 379 157 q 204 176 267 157 m 275 726 q 192 685 221 715 q 157 613 163 654 l 153 567 q 153 538 153 563 q 156 407 153 514 q 226 274 158 300 q 262 262 243 265 q 326 258 281 258 q 481 267 372 258 l 501 271 q 580 320 551 279 q 614 424 608 361 q 619 519 619 486 q 619 564 619 553 l 618 601 q 481 726 618 699 q 378 733 429 733 l 275 726 m 524 300 l 450 297 q 433 297 440 297 l 432 297 q 389 386 413 344 l 351 442 q 347 403 347 421 l 354 304 q 256 297 328 297 q 258 478 258 297 q 253 692 258 658 q 355 701 322 701 q 401 700 388 701 q 500 636 468 694 q 517 578 517 608 q 500 518 517 549 q 428 469 474 471 l 424 469 l 424 468 q 457 418 433 453 q 524 300 510 342 m 374 542 q 419 585 419 542 q 406 613 419 603 q 375 622 393 622 q 335 614 357 622 q 336 578 336 603 l 336 543 l 338 543 q 374 542 360 542 z "},"°":{"ha":414,"x_min":36,"x_max":379,"o":"m 150 900 l 168 901 q 223 903 189 903 q 279 896 257 903 l 304 886 q 343 863 325 879 q 376 797 369 842 q 379 736 379 783 q 267 564 379 583 q 190 557 229 557 q 110 569 150 557 q 49 626 63 593 q 38 724 38 658 q 44 817 38 789 q 150 900 67 883 m 161 639 q 191 638 175 638 q 247 643 207 638 l 249 643 q 293 694 286 647 q 298 725 296 703 q 300 764 300 747 q 289 796 300 781 q 210 822 267 822 q 157 817 185 822 q 121 775 126 806 q 119 690 119 765 q 161 639 119 646 z "},"±":{"ha":696,"x_min":39,"x_max":663,"o":"m 400 353 l 249 356 q 233 356 235 356 q 229 410 229 360 l 231 465 q 226 529 231 525 l 224 529 q 139 533 199 529 q 68 546 68 539 q 69 576 69 560 q 68 618 69 592 q 65 687 67 644 q 63 731 63 729 q 74 731 64 731 q 158 736 85 731 q 239 744 231 742 q 243 847 239 797 q 247 900 247 897 l 251 925 q 310 918 251 918 l 438 919 q 453 919 450 919 q 456 747 453 756 q 538 746 474 746 q 624 742 601 746 q 622 644 622 710 q 618 540 622 578 q 538 537 614 538 q 453 531 463 536 q 454 514 454 525 l 443 361 l 443 358 q 400 353 436 353 m 661 6 l 39 15 l 43 238 l 658 238 l 656 104 q 663 6 656 44 l 661 6 z "},"²":{"ha":367,"x_min":44,"x_max":325,"o":"m 156 551 l 311 553 q 317 523 317 540 q 316 488 317 506 q 317 467 315 469 l 314 467 l 74 463 l 44 463 l 44 465 q 46 517 46 482 q 67 621 46 586 q 139 676 92 647 q 205 719 186 706 q 224 768 224 732 q 192 807 224 804 q 143 731 143 807 l 143 729 q 89 725 113 725 q 50 726 65 725 l 50 728 q 46 774 46 753 q 82 874 46 833 q 200 911 113 911 q 324 794 314 911 q 325 728 326 758 q 293 673 324 697 q 221 629 263 649 q 163 590 179 610 q 156 551 147 556 z "},"³":{"ha":353,"x_min":39,"x_max":310,"o":"m 214 772 q 179 807 214 807 q 147 797 165 807 q 122 768 128 786 q 76 767 114 768 l 39 767 l 39 768 q 42 828 39 821 q 111 894 56 875 q 172 907 144 907 q 300 853 268 907 q 308 828 308 842 q 309 783 308 814 q 310 696 310 751 q 308 618 310 640 q 296 525 304 540 q 172 460 269 460 q 96 472 124 460 q 74 481 82 475 q 60 492 67 488 q 48 519 54 497 q 41 564 42 542 q 39 599 40 586 l 40 599 l 122 603 l 124 603 q 161 567 133 578 q 182 563 169 563 q 208 579 194 563 q 214 608 217 592 q 199 633 211 625 q 165 646 183 646 q 129 642 146 646 q 124 669 124 647 l 125 719 q 125 731 125 728 q 160 734 135 735 q 200 741 186 733 q 214 772 214 749 z "},"´":{"ha":354,"x_min":8,"x_max":336,"o":"m 194 729 q 136 726 164 726 q 8 735 40 726 q 115 842 26 751 q 240 961 203 932 l 336 864 q 292 825 326 854 q 194 729 203 749 z "},"µ":{"ha":636,"x_min":56,"x_max":592,"o":"m 588 3 l 444 -6 q 407 1 419 -6 q 404 44 404 19 l 404 75 q 359 33 389 49 q 308 14 329 18 q 246 6 288 10 q 249 -167 246 -128 q 251 -219 251 -207 q 188 -229 250 -229 l 69 -228 q 56 -228 58 -228 q 57 288 56 268 l 63 622 q 61 692 63 665 q 235 697 99 697 q 238 542 238 656 q 239 399 238 429 q 242 355 240 369 q 244 332 243 340 q 247 310 244 324 q 251 288 249 296 q 256 269 253 279 q 329 226 271 226 q 383 247 356 226 q 413 313 410 267 q 414 346 414 326 l 404 603 q 411 690 404 663 q 482 694 447 694 l 517 694 q 586 699 550 694 l 590 157 q 588 3 590 28 z "},"¶":{"ha":933,"x_min":26,"x_max":910,"o":"m 906 1011 l 910 821 q 857 808 903 808 q 771 811 811 808 q 761 -12 761 200 q 764 -275 761 -225 q 700 -285 763 -285 l 582 -283 q 568 -283 571 -283 q 581 281 581 -122 q 586 813 582 685 l 479 814 q 471 44 471 288 q 475 -275 471 -199 q 411 -285 474 -285 l 293 -283 q 279 -283 282 -283 q 292 70 292 -140 q 289 444 292 281 q 210 439 251 439 q 138 456 168 439 q 43 572 90 483 q 28 726 28 644 q 39 896 28 808 q 150 1000 61 986 q 238 1008 189 1007 q 304 1010 288 1008 l 549 1011 l 774 1014 l 906 1011 z "},"·":{"ha":228,"x_min":49,"x_max":179,"o":"m 179 367 q 142 353 171 353 l 76 354 q 56 354 65 354 l 50 518 q 50 546 50 532 l 175 544 l 179 367 z "},"¸":{"ha":264,"x_min":24,"x_max":240,"o":"m 24 -204 l 94 0 l 107 -3 l 121 -6 l 240 -8 l 175 -204 l 175 -206 q 24 -204 24 -206 z "},"¹":{"ha":260,"x_min":17,"x_max":208,"o":"m 208 788 l 201 517 l 201 475 q 179 465 201 465 q 107 469 157 465 l 107 528 l 115 757 l 115 768 q 104 751 113 768 q 89 735 96 735 q 49 744 82 735 q 17 757 17 753 q 75 872 17 778 l 88 890 l 143 892 q 206 889 164 892 q 208 788 208 867 z "},"º":{"ha":353,"x_min":36,"x_max":318,"o":"m 175 899 q 203 899 175 899 q 267 860 231 899 q 310 778 303 822 q 317 717 317 735 q 317 690 317 699 q 318 669 318 681 q 283 531 318 597 q 176 465 249 465 q 125 472 151 465 q 54 540 69 494 q 39 656 39 585 q 38 699 38 678 q 69 842 38 793 q 75 849 69 843 q 175 899 119 899 m 174 564 q 206 589 199 568 q 215 645 213 610 q 218 722 218 681 q 203 782 218 763 q 178 801 189 801 q 158 799 168 801 q 133 749 136 794 q 129 669 129 704 q 133 618 129 635 q 140 593 138 601 q 144 581 143 585 q 174 564 151 564 z "},"»":{"ha":810,"x_min":26,"x_max":792,"o":"m 349 104 l 333 118 q 467 242 382 157 q 590 360 553 326 q 463 498 553 404 q 346 626 374 592 q 397 674 361 636 q 451 722 433 713 l 531 640 q 792 364 736 435 q 599 163 729 282 q 442 15 469 43 q 371 82 408 44 l 349 104 m 42 104 l 26 118 q 160 242 75 157 q 283 360 246 326 q 156 498 246 404 q 39 626 67 592 q 90 674 54 636 q 144 722 126 713 l 224 640 q 485 364 429 435 q 292 163 422 282 q 135 15 163 43 q 64 82 101 44 l 42 104 z "},"¼":{"ha":826,"x_min":21,"x_max":799,"o":"m 528 983 l 597 986 q 635 979 629 986 l 635 978 q 300 11 386 233 l 297 7 l 294 1 q 282 1 292 1 l 197 3 q 174 1 178 3 q 329 441 203 89 q 507 985 456 793 q 528 983 511 983 m 793 144 l 757 142 l 756 142 q 751 81 757 143 q 744 8 746 19 q 640 4 740 4 l 642 153 q 567 156 635 156 q 499 156 500 156 l 499 157 q 492 217 492 186 q 492 257 492 247 l 492 258 l 644 493 l 756 494 l 757 494 q 758 464 758 488 l 757 324 q 760 253 757 261 q 780 253 764 256 q 799 250 796 250 l 794 144 l 793 144 m 625 250 l 665 251 l 667 251 l 667 253 l 669 350 q 633 308 669 363 q 596 251 597 253 l 611 250 q 625 250 618 250 m 242 794 l 235 482 q 236 433 235 450 q 193 421 236 421 l 126 425 l 126 493 l 135 757 q 133 771 135 767 q 122 751 131 771 q 104 732 113 732 q 58 742 96 732 q 21 757 21 753 q 60 840 24 778 q 104 911 96 903 l 167 913 q 239 910 192 913 q 242 794 242 883 z "},"½":{"ha":836,"x_min":21,"x_max":804,"o":"m 528 983 l 597 986 q 635 979 629 986 l 635 978 q 300 11 386 233 l 297 7 l 294 1 q 282 1 292 1 l 197 3 q 174 1 178 3 q 329 441 203 89 q 507 985 456 793 q 528 983 511 983 m 658 103 l 788 104 q 793 51 793 92 q 794 8 793 10 q 792 6 794 6 l 528 3 l 496 3 l 496 4 q 497 49 497 21 q 497 96 497 78 q 519 176 500 143 q 599 238 544 206 q 668 283 653 271 q 693 331 693 297 q 656 382 693 379 q 604 299 604 382 l 604 297 q 528 292 549 292 q 501 293 508 292 l 500 293 l 500 294 q 496 344 496 321 q 535 456 496 413 q 664 497 567 497 q 733 485 707 497 q 801 368 794 453 q 803 326 803 340 q 768 236 803 264 q 688 187 733 208 q 624 143 642 165 q 617 103 608 108 q 658 103 635 103 m 242 794 l 235 482 q 236 433 235 450 q 193 421 236 421 l 126 425 l 126 493 l 135 757 q 133 771 135 767 q 122 751 131 771 q 104 732 113 732 q 58 742 96 732 q 21 757 21 753 q 60 840 24 778 q 104 911 96 903 l 167 913 q 239 910 192 913 q 242 794 242 883 z "},"¾":{"ha":869,"x_min":32,"x_max":844,"o":"m 574 983 l 643 986 q 681 979 675 986 l 681 978 q 346 11 432 233 l 343 7 l 340 1 q 328 1 338 1 l 243 3 q 219 1 224 3 q 375 441 249 89 q 553 985 501 793 q 574 983 557 983 m 839 144 l 803 142 l 801 142 q 797 81 803 143 q 790 8 792 19 q 686 4 786 4 l 688 153 q 613 156 681 156 q 544 156 546 156 l 544 157 q 538 217 538 186 q 538 257 538 247 l 538 258 l 690 493 l 801 494 l 803 494 q 804 464 804 488 l 803 324 q 806 253 803 261 q 826 253 810 256 q 844 250 842 250 l 840 144 l 839 144 m 642 251 q 642 251 642 251 q 672 250 642 250 q 711 251 701 250 l 713 251 l 713 253 l 715 350 q 679 308 715 363 q 642 251 643 253 m 124 760 l 32 758 l 32 760 q 35 824 32 815 q 111 899 50 876 q 178 913 147 913 q 318 853 283 913 q 328 823 328 838 q 328 775 328 808 q 329 679 329 742 q 315 492 329 521 q 246 428 297 444 q 186 419 215 419 q 67 447 99 419 q 61 450 63 450 q 39 500 40 475 q 35 534 36 511 q 33 565 33 557 q 33 572 32 572 l 113 578 q 124 578 119 578 l 125 578 q 165 536 135 549 q 189 533 175 533 q 218 551 203 533 q 224 582 226 564 q 206 612 222 600 q 169 624 190 624 q 131 621 147 624 q 125 650 125 632 l 128 717 q 165 720 136 719 q 210 729 194 721 q 224 764 225 738 q 188 801 224 801 q 152 790 172 801 q 124 760 132 779 z "},"¿":{"ha":625,"x_min":25,"x_max":603,"o":"m 310 610 l 385 608 q 421 610 406 608 l 422 610 q 428 579 428 604 l 425 526 q 371 361 407 414 q 336 308 361 343 q 247 150 247 190 q 301 90 247 107 q 331 81 319 81 q 356 87 342 81 q 381 108 371 93 q 404 142 390 122 q 433 167 418 161 q 483 169 465 169 l 603 164 l 603 163 q 520 -34 597 53 q 329 -126 443 -121 q 293 -128 311 -128 q 106 -57 186 -128 q 26 115 26 14 q 93 293 26 210 q 135 342 108 314 q 176 389 163 371 q 244 558 225 457 q 251 592 251 582 q 250 606 251 601 l 250 607 q 310 610 272 610 m 426 854 q 431 781 431 831 l 428 693 q 334 682 396 682 q 254 690 272 682 l 263 853 l 263 856 l 265 856 l 422 854 l 426 854 z "},"À":{"ha":603,"x_min":6,"x_max":607,"o":"m 403 1047 q 308 1039 369 1039 q 217 1042 247 1039 q 145 1113 206 1058 q 75 1176 85 1167 l 171 1274 q 297 1154 208 1244 q 403 1047 385 1064 m 218 972 q 244 974 238 975 q 281 972 251 972 q 389 979 310 972 q 503 488 411 910 l 607 1 l 607 0 q 526 -7 572 -7 q 421 6 481 -7 l 419 6 q 389 117 410 32 q 354 232 368 203 q 328 236 349 236 l 268 233 q 240 121 257 207 q 207 1 224 35 q 182 -1 194 -1 l 8 1 q 6 3 7 1 q 218 972 82 521 m 258 397 q 361 397 310 397 q 308 688 328 688 q 297 667 303 688 q 258 397 292 646 z "},"Á":{"ha":603,"x_min":6,"x_max":607,"o":"m 369 1042 q 311 1039 339 1039 q 183 1047 215 1039 q 290 1154 201 1064 q 415 1274 378 1244 l 511 1176 q 467 1138 501 1167 q 369 1042 378 1061 m 218 972 q 244 974 238 975 q 281 972 251 972 q 389 979 310 972 q 503 488 411 910 l 607 1 l 607 0 q 526 -7 572 -7 q 421 6 481 -7 l 419 6 q 389 117 410 32 q 354 232 368 203 q 328 236 349 236 l 268 233 q 240 121 257 207 q 207 1 224 35 q 182 -1 194 -1 l 8 1 q 6 3 7 1 q 218 972 82 521 m 258 397 q 361 397 310 397 q 308 688 328 688 q 297 667 303 688 q 258 397 292 646 z "},"Â":{"ha":603,"x_min":6,"x_max":607,"o":"m 533 1050 l 425 1040 q 374 1043 401 1040 q 338 1075 365 1043 q 303 1111 310 1107 q 267 1077 296 1108 q 233 1044 238 1046 q 210 1043 228 1043 q 82 1049 193 1043 q 166 1145 126 1107 q 248 1222 206 1183 q 307 1275 290 1260 l 533 1050 m 218 972 q 244 974 238 975 q 281 972 251 972 q 389 979 310 972 l 503 488 l 607 1 l 607 0 q 526 -7 572 -7 q 421 6 481 -7 l 419 6 q 389 117 410 32 q 354 232 368 203 q 328 236 349 236 l 268 233 q 240 121 257 207 q 207 1 224 35 q 182 -1 194 -1 l 8 1 q 6 3 7 1 q 33 160 7 7 q 110 544 60 313 q 218 972 160 775 m 258 397 q 361 397 310 397 q 308 688 328 688 q 297 667 303 688 q 258 397 292 646 z "},"Ã":{"ha":603,"x_min":6,"x_max":607,"o":"m 261 1143 q 182 1078 182 1143 q 186 1049 182 1064 l 186 1047 q 105 1053 163 1053 q 24 1051 47 1053 q 107 1231 58 1175 q 219 1279 156 1279 q 329 1222 285 1279 q 360 1190 349 1197 q 394 1175 378 1175 q 431 1199 410 1175 q 467 1264 453 1222 q 581 1268 468 1264 l 582 1267 q 583 1265 582 1265 l 583 1264 q 585 1235 585 1249 q 556 1124 585 1179 q 424 1040 513 1040 q 360 1056 393 1040 q 310 1111 326 1071 q 261 1143 292 1142 m 218 972 q 244 974 238 975 q 281 972 251 972 q 389 979 310 972 q 503 488 411 910 l 607 1 l 607 0 q 526 -7 572 -7 q 421 6 481 -7 l 419 6 q 389 117 410 32 q 354 232 368 203 q 328 236 349 236 l 268 233 q 240 121 257 207 q 207 1 224 35 q 182 -1 194 -1 l 8 1 q 6 3 7 1 q 33 160 7 7 q 110 544 60 313 q 218 972 160 775 m 258 397 q 361 397 310 397 q 308 688 328 688 q 297 667 303 688 q 258 397 292 646 z "},"Ä":{"ha":603,"x_min":6,"x_max":607,"o":"m 96 1054 q 92 1118 92 1076 l 94 1194 q 176 1204 124 1204 q 246 1196 228 1204 l 244 1165 q 238 1056 238 1074 l 238 1053 l 235 1053 l 100 1054 l 96 1054 m 338 1054 q 333 1118 333 1076 l 336 1194 q 417 1204 365 1204 q 488 1196 469 1204 l 486 1165 q 479 1056 479 1074 l 479 1053 l 476 1053 l 342 1054 l 338 1054 m 218 972 q 244 974 238 975 q 281 972 251 972 q 389 979 310 972 l 503 488 l 607 1 l 607 0 q 526 -7 572 -7 q 421 6 481 -7 l 419 6 q 389 117 410 32 q 354 232 368 203 q 328 236 349 236 l 268 233 q 240 121 257 207 q 207 1 224 35 q 182 -1 194 -1 l 8 1 q 6 3 7 1 q 33 160 7 7 q 110 544 60 313 q 218 972 160 775 m 258 397 q 361 397 310 397 q 308 688 328 688 q 297 667 303 688 q 258 397 292 646 z "},"Å":{"ha":603,"x_min":6,"x_max":607,"o":"m 322 1046 q 286 1043 307 1043 q 244 1044 265 1043 q 182 1085 197 1047 q 172 1172 172 1133 q 196 1271 172 1240 q 282 1300 228 1300 q 304 1299 293 1300 q 414 1258 388 1296 q 425 1174 425 1219 q 406 1079 425 1129 q 322 1046 386 1049 m 235 1178 q 249 1117 235 1131 q 283 1104 264 1104 l 297 1104 q 357 1125 349 1107 q 364 1171 364 1157 q 354 1218 364 1203 q 306 1238 335 1238 q 258 1229 278 1238 q 238 1200 242 1218 q 235 1178 235 1182 m 218 972 q 244 974 238 975 q 281 972 251 972 q 389 979 310 972 l 503 488 l 607 1 l 607 0 q 526 -7 572 -7 q 421 6 481 -7 l 419 6 q 389 117 410 32 q 354 232 368 203 q 328 236 349 236 l 268 233 q 240 121 257 207 q 207 1 224 35 q 182 -1 194 -1 l 8 1 q 6 3 7 1 q 33 160 7 7 q 110 544 60 313 q 218 972 160 775 m 258 397 q 361 397 310 397 q 308 688 328 688 q 297 667 303 688 q 258 397 292 646 z "},"Æ":{"ha":994,"x_min":3,"x_max":972,"o":"m 774 508 l 769 389 q 707 384 747 385 q 638 383 667 383 q 601 375 608 382 q 599 275 599 326 q 610 199 599 224 l 611 199 q 784 196 660 196 q 969 190 908 196 l 969 186 q 971 115 971 160 q 961 8 971 69 l 958 6 l 564 1 q 389 7 469 1 q 369 80 383 29 q 350 160 356 131 l 350 161 l 254 164 l 251 164 q 232 98 251 163 q 206 4 213 33 l 201 1 l 94 4 q 10 1 15 4 q 3 -1 4 -1 q 35 185 33 160 q 44 246 38 210 q 54 293 51 282 q 72 367 57 304 q 99 485 86 431 q 145 678 113 539 q 213 963 178 817 q 965 974 464 974 l 965 971 q 968 908 968 942 l 965 774 l 965 771 q 811 758 910 758 l 735 760 q 594 753 647 760 q 594 743 594 750 l 590 638 q 599 590 590 599 q 681 586 624 586 q 767 582 739 586 q 774 508 774 551 m 258 394 l 261 394 q 279 397 267 397 l 331 393 q 353 399 349 393 q 328 500 347 433 l 303 585 q 271 485 278 515 q 258 394 264 456 z "},"Ç":{"ha":661,"x_min":44,"x_max":636,"o":"m 210 -174 l 246 -14 l 246 -10 q 207 -11 232 -11 q 148 7 182 -11 q 92 67 114 25 q 49 256 51 144 l 49 269 q 46 497 46 378 q 49 677 46 615 q 54 743 53 739 q 143 939 67 874 q 257 963 181 963 q 276 963 265 963 q 300 963 288 963 q 460 943 406 963 q 607 788 560 901 q 635 666 635 721 q 621 567 635 611 q 619 567 619 567 q 547 558 596 558 q 433 568 499 558 l 431 568 q 421 633 424 586 q 406 710 418 679 q 335 750 388 750 q 277 727 301 750 q 250 667 253 704 q 246 476 246 569 q 253 303 246 382 q 326 203 271 218 q 342 201 335 201 q 422 250 399 201 q 436 322 435 276 q 439 381 438 367 l 536 383 q 619 375 589 383 q 636 275 636 324 q 592 117 636 194 q 381 -14 521 -6 l 378 -14 l 376 -12 q 335 -174 347 -136 l 335 -176 q 318 -176 328 -176 l 235 -179 q 210 -174 210 -179 z "},"È":{"ha":668,"x_min":56,"x_max":646,"o":"m 482 1047 q 388 1039 449 1039 q 296 1042 326 1039 q 224 1113 285 1058 q 154 1176 164 1167 l 250 1274 q 376 1154 288 1244 q 482 1047 464 1064 m 279 196 l 585 188 q 643 189 617 188 l 643 186 q 646 103 646 153 q 632 4 646 53 l 238 0 q 63 7 142 0 l 56 658 q 64 957 56 815 q 468 969 299 969 q 639 965 638 969 q 643 903 643 936 l 639 768 l 639 767 q 478 753 578 753 l 406 753 q 275 750 328 753 l 271 750 l 269 749 l 265 628 q 272 585 265 592 q 443 581 347 581 l 443 579 q 449 521 449 575 l 446 386 q 352 378 417 378 q 278 371 288 378 q 272 298 272 342 q 278 197 272 254 l 279 196 z "},"É":{"ha":668,"x_min":56,"x_max":646,"o":"m 279 196 l 585 188 q 643 189 617 188 l 643 186 q 646 103 646 153 q 632 4 646 53 l 238 0 q 63 7 142 0 l 56 658 q 64 957 56 815 q 468 969 299 969 q 639 965 638 969 q 643 903 643 936 l 639 768 l 639 767 q 478 753 578 753 l 406 753 q 275 750 328 753 l 271 750 l 269 749 l 265 628 q 272 585 265 592 q 443 581 347 581 l 443 579 q 449 521 449 575 l 446 386 q 352 378 417 378 q 278 371 288 378 q 272 298 272 342 q 278 197 272 254 l 279 196 m 408 1042 q 350 1039 378 1039 q 222 1047 253 1039 q 328 1154 240 1064 q 454 1274 417 1244 l 550 1176 q 506 1138 540 1167 q 408 1042 417 1061 z "},"Ê":{"ha":668,"x_min":56,"x_max":646,"o":"m 576 1050 l 468 1040 q 417 1043 444 1040 q 381 1075 408 1043 q 346 1111 353 1107 q 310 1077 339 1108 q 276 1044 281 1046 q 253 1043 271 1043 q 125 1049 236 1043 q 209 1145 169 1107 q 291 1222 249 1183 q 350 1275 333 1260 l 576 1050 m 279 196 l 585 188 q 643 189 617 188 l 643 186 q 646 103 646 153 q 632 4 646 53 l 238 0 q 63 7 142 0 l 56 658 q 64 957 56 815 q 468 969 299 969 q 639 965 638 969 q 643 903 643 936 l 639 768 l 639 767 q 478 753 578 753 l 406 753 q 275 750 328 753 l 271 750 l 269 749 l 265 628 q 272 585 265 592 q 443 581 347 581 l 443 579 q 449 521 449 575 l 446 386 q 352 378 417 378 q 278 371 288 378 q 272 298 272 342 q 278 197 272 254 l 279 196 z "},"Ë":{"ha":668,"x_min":56,"x_max":646,"o":"m 279 196 l 585 188 q 643 189 617 188 l 643 186 q 646 103 646 153 q 632 4 646 53 l 238 0 q 63 7 142 0 l 56 658 q 64 957 56 815 q 468 969 299 969 q 639 965 638 969 q 643 903 643 936 l 639 768 l 639 767 q 478 753 578 753 l 406 753 q 275 750 328 753 l 271 750 l 269 749 l 265 628 q 272 585 265 592 q 443 581 347 581 l 443 579 q 449 521 449 575 l 446 386 q 352 378 417 378 q 278 371 288 378 q 272 298 272 342 q 278 197 272 254 l 279 196 m 150 1054 q 146 1118 146 1076 l 149 1194 q 230 1204 178 1204 q 300 1196 282 1204 l 297 1165 q 292 1056 292 1074 l 292 1053 l 289 1053 l 154 1054 l 150 1054 m 392 1054 q 388 1118 388 1076 l 390 1194 q 472 1204 419 1204 q 542 1196 524 1204 l 539 1165 q 533 1056 533 1074 l 533 1053 l 531 1053 l 396 1054 l 392 1054 z "},"Ì":{"ha":361,"x_min":-22,"x_max":308,"o":"m 306 1047 q 211 1039 272 1039 q 119 1042 150 1039 q 48 1113 108 1058 q -22 1176 -12 1167 l 74 1274 q 199 1154 111 1244 q 306 1047 288 1064 m 72 983 l 122 981 q 275 976 238 976 l 308 976 l 308 971 l 299 308 q 307 7 299 199 q 224 -8 303 -8 l 81 -4 q 54 -6 60 -4 q 61 232 61 85 l 54 711 q 65 981 54 889 l 65 983 q 72 983 68 983 z "},"Í":{"ha":360,"x_min":53,"x_max":410,"o":"m 65 983 l 122 981 q 275 976 238 976 l 308 976 l 308 971 l 299 308 q 307 7 299 199 q 224 -8 303 -8 l 81 -4 q 54 -6 60 -4 q 61 232 61 85 l 54 711 q 65 981 54 889 l 65 983 m 268 1042 q 210 1039 238 1039 q 82 1047 114 1039 q 188 1154 100 1064 q 314 1274 276 1244 l 410 1176 q 367 1138 400 1167 q 268 1042 276 1061 z "},"Î":{"ha":361,"x_min":-25,"x_max":426,"o":"m 426 1050 l 318 1040 q 267 1043 294 1040 q 231 1075 258 1043 q 196 1111 203 1107 q 160 1077 189 1108 q 126 1044 131 1046 q 103 1043 121 1043 q -25 1049 86 1043 q 59 1145 19 1107 q 141 1222 99 1183 q 200 1275 183 1260 l 426 1050 m 72 983 l 122 981 q 275 976 238 976 l 308 976 l 308 971 l 299 308 q 307 7 299 199 q 224 -8 303 -8 l 81 -4 q 54 -6 60 -4 q 61 232 61 85 l 54 711 q 65 981 54 889 l 65 983 q 72 983 68 983 z "},"Ï":{"ha":361,"x_min":-1,"x_max":394,"o":"m 65 983 l 122 981 q 275 976 238 976 l 308 976 l 308 971 l 299 308 q 307 7 299 199 q 224 -8 303 -8 l 81 -4 q 54 -6 60 -4 q 61 232 61 85 l 54 711 q 65 981 54 889 l 65 983 m 3 1054 q -1 1118 -1 1076 l 1 1194 q 83 1204 31 1204 q 153 1196 135 1204 l 150 1165 q 144 1056 144 1074 l 144 1053 l 142 1053 l 7 1054 l 3 1054 m 244 1054 q 240 1118 240 1076 l 243 1194 q 324 1204 272 1204 q 394 1196 376 1204 l 392 1165 q 386 1056 386 1074 l 386 1053 l 383 1053 l 249 1054 l 244 1054 z "},"Ð":{"ha":669,"x_min":-8,"x_max":642,"o":"m -1 378 l -7 542 q -7 569 -7 556 l 72 568 q 74 772 74 669 q 71 954 74 874 q 131 964 81 956 q 282 981 243 981 q 337 978 321 981 q 391 969 353 976 q 453 949 429 963 q 550 850 513 911 q 603 728 588 789 q 636 580 631 636 q 642 457 642 524 q 619 304 642 390 q 443 11 560 36 q 306 0 386 0 l 103 6 q 78 6 89 6 q 72 376 72 183 q -1 378 46 378 m 279 228 l 331 231 q 425 285 392 236 q 461 467 461 340 q 454 561 461 533 q 443 610 447 589 q 435 639 439 631 q 426 664 432 647 q 413 689 419 681 q 372 729 393 715 q 324 742 342 742 q 232 728 267 742 q 235 660 235 706 q 233 564 235 614 l 315 563 l 319 385 l 232 386 q 235 240 232 265 q 279 228 235 228 z "},"Ñ":{"ha":717,"x_min":53,"x_max":661,"o":"m 442 971 q 563 981 497 981 q 658 975 629 981 l 657 531 q 658 276 658 453 q 661 24 658 100 l 660 4 q 603 -11 654 -11 l 493 -4 q 456 -7 472 -4 l 454 -7 q 288 408 400 111 q 278 172 278 274 q 279 35 278 71 q 279 -1 281 -1 q 235 -7 267 -7 l 90 3 q 65 1 71 3 q 58 1 58 0 q 58 71 58 33 l 54 567 q 67 965 54 806 q 151 974 97 974 q 269 956 206 974 l 269 954 q 350 803 274 928 q 439 658 426 679 q 443 715 443 676 l 438 886 q 442 967 438 933 l 442 971 m 244 1044 q 163 1050 221 1050 q 82 1049 106 1050 q 165 1228 117 1172 q 278 1276 214 1276 q 388 1219 343 1276 q 418 1188 407 1194 q 452 1172 436 1172 q 490 1196 468 1172 q 525 1261 511 1219 q 639 1265 526 1261 l 640 1264 q 642 1255 640 1263 q 644 1231 644 1247 q 592 1086 644 1164 q 540 1047 567 1057 q 490 1038 514 1038 q 439 1044 465 1038 q 368 1108 386 1061 q 314 1140 349 1140 q 265 1128 297 1140 q 240 1075 240 1110 q 244 1046 240 1061 l 244 1044 z "},"Ò":{"ha":674,"x_min":40,"x_max":635,"o":"m 419 1047 q 325 1039 386 1039 q 233 1042 264 1039 q 162 1113 222 1058 q 92 1176 101 1167 l 188 1274 q 313 1154 225 1244 q 419 1047 401 1064 m 635 657 l 631 465 q 626 321 631 371 l 622 275 q 569 88 615 161 q 426 3 528 31 q 333 -12 375 -12 q 245 -9 290 -12 q 153 15 200 -6 q 85 86 107 36 q 51 240 54 139 q 40 497 40 453 q 44 676 40 608 q 118 914 47 832 q 150 939 135 931 q 332 979 231 979 q 551 914 465 979 q 608 829 592 878 q 628 751 622 797 q 635 657 635 706 m 457 351 l 460 424 l 460 490 l 457 585 q 451 664 451 638 q 379 782 444 750 q 342 790 360 790 l 271 763 q 206 667 222 724 q 192 537 192 599 q 193 450 192 475 q 219 243 203 296 q 331 182 249 182 q 429 225 390 182 q 453 269 451 256 q 455 306 454 282 q 457 351 456 329 z "},"Ó":{"ha":674,"x_min":40,"x_max":635,"o":"m 635 657 l 631 465 q 626 321 631 371 l 622 275 q 569 88 615 161 q 426 3 528 31 q 333 -12 375 -12 q 245 -9 290 -12 q 153 15 200 -6 q 85 86 107 36 q 51 240 54 139 q 40 497 40 453 q 44 676 40 608 q 118 914 47 832 q 150 939 135 931 q 332 979 231 979 q 551 914 465 979 q 608 829 592 878 q 628 751 622 797 q 635 657 635 706 m 457 351 l 460 424 l 460 490 l 457 585 q 451 664 451 638 q 379 782 444 750 q 342 790 360 790 l 271 763 q 206 667 222 724 q 192 537 192 599 q 193 450 192 475 q 219 243 203 296 q 331 182 249 182 q 429 225 390 182 q 453 269 451 256 q 455 306 454 282 q 457 351 456 329 m 417 1042 q 358 1039 386 1039 q 231 1047 261 1039 q 337 1154 249 1064 q 463 1274 425 1244 l 558 1176 q 514 1138 549 1167 q 417 1042 425 1061 z "},"Ô":{"ha":672,"x_min":39,"x_max":633,"o":"m 569 1050 l 461 1040 q 410 1043 438 1040 q 374 1075 401 1043 q 339 1111 346 1107 q 303 1077 332 1108 q 269 1044 274 1046 q 247 1043 264 1043 q 118 1049 229 1043 q 202 1145 163 1107 q 284 1222 242 1183 q 343 1275 326 1260 l 569 1050 m 633 657 l 629 465 q 625 321 629 371 l 621 275 q 568 88 614 161 q 425 3 526 31 q 331 -12 372 -12 q 244 -9 289 -12 q 152 15 199 -6 q 83 86 106 36 q 50 240 53 139 q 39 497 39 453 q 43 676 39 608 q 117 914 46 832 q 149 939 133 931 q 331 979 229 979 q 550 914 464 979 q 607 829 590 878 q 627 751 621 797 q 633 657 633 706 m 456 351 l 458 424 l 458 490 l 456 585 q 450 664 450 638 q 378 782 443 750 q 340 790 358 790 l 269 763 q 204 667 221 724 q 190 537 190 599 q 192 450 190 475 q 218 243 201 296 q 329 182 247 182 q 428 225 389 182 q 451 269 450 256 q 453 306 453 282 q 456 351 454 329 z "},"Õ":{"ha":672,"x_min":39,"x_max":633,"o":"m 633 657 l 629 465 q 625 321 629 371 l 621 275 q 568 88 614 161 q 425 3 526 31 q 331 -12 372 -12 q 244 -9 289 -12 q 152 15 199 -6 q 83 86 106 36 q 50 240 53 139 q 39 497 39 453 q 43 676 39 608 q 117 914 46 832 q 149 939 133 931 q 331 979 229 979 q 550 914 464 979 q 607 829 590 878 q 627 751 621 797 q 633 657 633 706 m 456 351 l 458 424 l 458 490 l 456 585 q 450 664 450 638 q 378 782 443 750 q 340 790 358 790 l 269 763 q 204 667 221 724 q 190 537 190 599 q 192 450 190 475 q 218 243 201 296 q 329 182 247 182 q 428 225 389 182 q 451 269 450 256 q 453 306 453 282 q 456 351 454 329 m 217 1032 q 135 1038 193 1038 q 54 1036 78 1038 q 138 1215 89 1160 q 250 1264 186 1264 q 360 1207 315 1264 q 390 1175 379 1182 q 424 1160 408 1160 q 462 1183 440 1160 q 497 1249 483 1207 q 611 1253 499 1249 l 613 1251 q 615 1242 613 1250 q 617 1218 617 1235 q 564 1074 617 1151 q 513 1035 539 1044 q 462 1025 486 1025 q 411 1033 438 1025 q 340 1096 358 1049 q 286 1128 321 1128 q 238 1115 269 1128 q 213 1061 213 1097 q 217 1033 213 1047 l 217 1032 z "},"Ö":{"ha":672,"x_min":39,"x_max":633,"o":"m 633 657 l 629 465 q 625 321 629 371 l 621 275 q 568 88 614 161 q 425 3 526 31 q 331 -12 372 -12 q 244 -9 289 -12 q 152 15 199 -6 q 83 86 106 36 q 50 240 53 139 q 39 497 39 453 q 43 676 39 608 q 117 914 46 832 q 149 939 133 931 q 331 979 229 979 q 550 914 464 979 q 607 829 590 878 q 627 751 621 797 q 633 657 633 706 m 456 351 l 458 424 l 458 490 l 456 585 q 450 664 450 638 q 378 782 443 750 q 340 790 358 790 l 269 763 q 204 667 221 724 q 190 537 190 599 q 192 450 190 475 q 218 243 201 296 q 329 182 247 182 q 428 225 389 182 q 451 269 450 256 q 453 306 453 282 q 456 351 454 329 m 147 1054 q 143 1118 143 1076 l 146 1194 q 227 1204 175 1204 q 297 1196 279 1204 l 294 1165 q 289 1056 289 1074 l 289 1053 l 286 1053 l 151 1054 l 147 1054 m 389 1054 q 385 1118 385 1076 l 388 1194 q 469 1204 417 1204 q 539 1196 521 1204 l 536 1165 q 531 1056 531 1074 l 531 1053 l 528 1053 l 393 1054 l 389 1054 z "},"×":{"ha":1021,"x_min":57,"x_max":963,"o":"m 961 13 q 933 -5 961 0 q 708 -10 904 -10 q 64 3 513 -10 q 71 251 71 182 q 69 390 71 319 q 63 669 68 460 q 57 1008 57 878 l 956 1006 q 963 18 956 172 q 961 13 961 17 m 354 517 q 333 588 347 538 q 308 669 318 639 q 206 893 281 753 q 201 140 201 678 q 309 392 272 288 q 354 517 346 497 m 813 149 q 815 378 815 246 q 814 666 815 510 q 813 886 813 822 q 730 720 806 868 q 646 514 654 572 q 727 317 654 454 q 813 149 800 179 m 496 569 q 557 700 500 582 q 638 890 614 818 q 504 890 606 890 q 371 889 403 889 q 442 696 390 819 q 496 569 494 572 m 360 135 q 438 132 397 132 q 643 143 593 132 l 494 456 q 431 312 488 439 q 360 135 375 185 z "},"Ø":{"ha":665,"x_min":40,"x_max":629,"o":"m 525 1006 q 589 994 574 1006 q 575 944 589 976 q 564 896 561 913 q 620 784 611 842 q 629 683 629 726 q 628 613 629 640 q 626 521 626 586 q 625 429 626 456 q 622 353 624 403 q 603 182 618 271 q 533 59 586 107 q 403 4 479 11 q 325 1 378 1 q 250 -3 272 0 l 247 -3 q 229 -24 247 -11 l 228 -25 q 163 -29 211 -28 l 106 -28 q 46 -29 69 -28 q 82 93 40 -21 q 83 94 82 94 q 83 96 83 94 q 83 97 83 97 q 82 99 82 97 q 40 483 40 263 q 44 612 40 561 q 50 708 47 663 q 76 848 53 800 q 136 932 100 896 q 317 976 194 976 q 386 974 349 976 q 390 990 389 975 q 400 1004 392 1004 l 401 1004 q 442 1001 421 1001 l 525 1006 m 196 388 l 325 781 l 325 782 l 314 782 q 258 758 286 779 q 219 708 231 736 q 210 621 214 679 q 203 532 207 563 l 199 500 q 192 425 192 451 q 196 388 192 399 m 447 543 l 447 549 q 318 182 432 507 q 319 181 319 182 q 339 184 319 181 q 395 208 358 188 q 442 260 432 228 q 456 378 456 321 q 451 482 456 435 q 447 543 447 529 z "},"Ù":{"ha":701,"x_min":51,"x_max":658,"o":"m 460 1047 q 365 1039 426 1039 q 274 1042 304 1039 q 202 1113 263 1058 q 132 1176 142 1167 l 228 1274 q 353 1154 265 1244 q 460 1047 442 1064 m 483 937 q 496 939 483 937 q 529 942 510 940 q 564 944 549 943 q 603 944 579 944 q 651 931 628 944 l 651 929 q 657 606 657 792 q 635 210 657 419 q 564 53 622 115 q 360 -22 493 -22 q 111 68 203 -22 q 51 204 54 124 l 58 814 q 56 944 58 942 l 57 944 l 160 947 q 253 938 221 947 l 253 936 q 247 647 247 817 q 265 254 247 478 q 349 192 283 192 q 392 203 369 192 q 436 261 428 221 q 444 624 442 388 q 449 933 447 860 q 483 937 456 933 z "},"Ú":{"ha":701,"x_min":51,"x_max":658,"o":"m 483 937 q 496 939 483 937 q 529 942 510 940 q 564 944 549 943 q 603 944 579 944 q 651 931 628 944 l 651 929 q 657 606 657 792 q 635 210 657 419 q 564 53 622 115 q 360 -22 493 -22 q 111 68 203 -22 q 51 204 54 124 l 58 814 q 56 944 58 942 l 57 944 l 160 947 q 253 938 221 947 l 253 936 q 247 647 247 817 q 265 254 247 478 q 349 192 283 192 q 392 203 369 192 q 436 261 428 221 q 444 624 442 388 q 449 933 447 860 q 483 937 456 933 m 440 1042 q 382 1039 410 1039 q 254 1047 285 1039 q 360 1154 272 1064 q 486 1274 449 1244 l 582 1176 q 539 1138 572 1167 q 440 1042 449 1061 z "},"Û":{"ha":701,"x_min":51,"x_max":658,"o":"m 571 1050 l 463 1040 q 411 1043 439 1040 q 375 1075 403 1043 q 340 1111 347 1107 q 304 1077 333 1108 q 270 1044 275 1046 q 248 1043 265 1043 q 119 1049 231 1043 q 203 1145 164 1107 q 285 1222 243 1183 q 344 1275 328 1260 l 571 1050 m 483 937 q 496 939 483 937 q 529 942 510 940 q 564 944 549 943 q 603 944 579 944 q 651 931 628 944 l 651 929 q 657 606 657 792 q 635 210 657 419 q 564 53 622 115 q 360 -22 493 -22 q 111 68 203 -22 q 51 204 54 124 l 58 814 q 56 944 58 942 l 57 944 l 160 947 q 253 938 221 947 l 253 936 q 247 647 247 817 q 265 254 247 478 q 349 192 283 192 q 392 203 369 192 q 436 261 428 221 q 444 624 442 388 q 449 933 447 860 q 483 937 456 933 z "},"Ü":{"ha":701,"x_min":51,"x_max":658,"o":"m 156 1054 q 151 1118 151 1076 l 154 1194 q 235 1204 183 1204 q 306 1196 288 1204 l 303 1165 q 297 1056 297 1074 l 297 1053 l 294 1053 l 160 1054 l 156 1054 m 397 1054 q 393 1118 393 1076 l 396 1194 q 477 1204 425 1204 q 547 1196 529 1204 l 544 1165 q 539 1056 539 1074 l 539 1053 l 536 1053 l 401 1054 l 397 1054 m 483 937 q 496 939 483 937 q 529 942 510 940 q 564 944 549 943 q 603 944 579 944 q 651 931 628 944 l 651 929 q 657 606 657 792 q 635 210 657 419 q 564 53 622 115 q 360 -22 493 -22 q 111 68 203 -22 q 51 204 54 124 q 58 814 51 204 q 56 944 58 942 l 57 944 q 160 947 57 944 q 253 938 221 947 l 253 936 q 247 647 247 817 q 265 254 247 478 q 349 192 283 192 q 392 203 369 192 q 436 261 428 221 q 444 624 442 388 q 449 933 447 860 q 483 937 456 933 z "},"Ý":{"ha":603,"x_min":15,"x_max":622,"o":"m 22 956 l 160 964 q 233 953 207 964 q 315 713 271 804 q 425 950 356 785 q 467 956 426 950 q 552 963 507 963 q 622 957 597 963 l 622 956 q 418 468 568 783 q 215 -1 268 153 q 179 0 203 0 l 43 -3 q 18 -3 29 -3 l 15 -3 q 196 475 39 72 l 196 478 q 109 717 176 558 q 22 956 42 876 m 393 1042 q 335 1039 363 1039 q 207 1047 239 1039 q 313 1154 225 1064 q 439 1274 401 1244 l 535 1176 q 492 1138 525 1167 q 393 1042 401 1061 z "},"Þ":{"ha":664,"x_min":51,"x_max":636,"o":"m 61 336 l 57 765 q 61 1014 57 911 l 250 1010 q 251 944 250 982 q 253 814 253 906 q 291 859 265 844 q 338 876 317 874 q 403 878 360 878 q 569 785 501 875 q 636 557 636 694 q 547 249 636 365 q 432 185 499 185 q 337 206 386 185 q 254 260 288 226 q 252 93 254 128 q 250 42 250 58 q 251 6 249 21 q 169 -6 242 -6 l 85 -6 q 51 -6 58 -6 q 61 336 61 142 m 415 666 q 399 679 415 666 q 328 692 382 692 q 265 671 274 692 q 256 596 256 650 q 256 518 256 542 q 256 478 256 494 q 261 438 257 461 q 275 404 265 414 q 348 379 297 379 q 432 422 399 379 q 465 520 465 465 q 457 608 465 575 q 415 666 449 640 z "},"ß":{"ha":653,"x_min":47,"x_max":639,"o":"m 47 303 l 50 775 q 49 961 50 894 l 50 963 q 230 993 161 993 q 356 985 299 993 q 472 949 414 978 q 565 857 529 919 q 601 699 601 794 q 533 489 601 603 q 544 456 526 476 q 566 428 561 435 q 588 399 571 422 q 610 365 606 375 q 624 331 614 354 q 637 291 635 308 q 639 250 639 274 q 635 201 639 226 q 517 32 614 79 q 438 3 469 8 q 378 -3 407 -3 q 318 0 350 -3 q 308 78 308 35 q 314 169 308 122 q 358 197 321 194 q 418 279 418 207 q 408 330 418 299 q 375 383 399 361 q 331 483 331 429 q 331 493 331 489 q 384 597 340 556 q 428 679 428 639 q 421 708 428 694 q 356 758 400 749 q 279 767 313 767 q 225 756 246 767 l 219 672 q 219 650 219 664 l 225 460 l 229 297 l 232 99 q 219 0 232 -1 q 53 4 63 0 q 47 303 47 99 z "},"à":{"ha":661,"x_min":26,"x_max":615,"o":"m 485 3 l 425 -1 q 408 22 408 4 q 411 55 408 40 q 414 78 414 69 q 328 20 379 43 q 231 -3 278 -3 q 115 61 164 -3 q 26 369 26 178 q 94 597 26 507 q 260 690 161 688 q 323 688 303 690 q 366 672 343 686 q 401 626 389 657 q 403 666 400 643 q 407 697 407 689 q 474 699 407 699 q 610 692 571 694 q 613 658 613 669 l 613 644 q 611 546 611 608 l 614 221 q 612 76 614 108 q 610 24 610 43 q 592 -1 610 4 l 575 -1 l 485 3 m 333 504 q 307 504 333 504 q 247 478 281 504 q 206 420 214 453 q 197 333 197 388 q 231 235 197 278 q 321 192 264 192 q 389 217 365 192 q 406 269 404 233 q 407 331 407 306 l 407 360 q 397 485 407 465 q 333 504 386 504 m 486 821 q 392 813 453 813 q 300 815 331 813 q 228 886 289 832 q 158 950 168 940 l 254 1047 q 380 928 292 1018 q 486 821 468 838 z "},"á":{"ha":661,"x_min":26,"x_max":615,"o":"m 485 3 l 425 -1 q 408 22 408 4 q 411 55 408 40 q 414 78 414 69 q 328 20 379 43 q 231 -3 278 -3 q 115 61 164 -3 q 26 369 26 178 q 94 597 26 507 q 260 690 161 688 q 323 688 303 690 q 366 672 343 686 q 401 626 389 657 q 403 666 400 643 q 407 697 407 689 q 474 699 407 699 q 610 692 571 694 q 613 658 613 669 l 613 644 q 611 546 611 608 l 614 221 q 612 76 614 108 q 610 24 610 43 q 592 -1 610 4 l 575 -1 l 485 3 m 333 504 q 307 504 333 504 q 247 478 281 504 q 206 420 214 453 q 197 333 197 388 q 231 235 197 278 q 321 192 264 192 q 389 217 365 192 q 406 269 404 233 q 407 331 407 306 l 407 360 q 397 485 407 465 q 333 504 386 504 m 407 815 q 349 813 376 813 q 221 821 251 813 q 327 928 239 838 q 453 1047 415 1018 l 549 950 q 506 911 539 940 q 407 815 415 835 z "},"â":{"ha":661,"x_min":26,"x_max":615,"o":"m 576 826 l 468 817 q 417 819 444 817 q 381 851 408 819 q 346 888 353 883 q 310 853 339 885 q 276 821 281 822 q 253 819 271 819 q 125 825 236 819 q 209 922 169 883 q 291 998 249 960 q 350 1051 333 1036 l 576 826 m 485 3 l 425 -1 q 408 22 408 4 q 411 55 408 40 q 414 78 414 69 q 328 20 379 43 q 231 -3 278 -3 q 115 61 164 -3 q 26 369 26 178 q 94 597 26 507 q 260 690 161 688 q 323 688 303 690 q 366 672 343 686 q 401 626 389 657 q 403 666 400 643 q 407 697 407 689 q 474 699 407 699 q 610 692 571 694 q 613 658 613 669 l 613 644 q 611 546 611 608 l 614 221 q 612 76 614 108 q 610 24 610 43 q 592 -1 610 4 l 575 -1 l 485 3 m 333 504 q 307 504 333 504 q 247 478 281 504 q 206 420 214 453 q 197 333 197 388 q 231 235 197 278 q 321 192 264 192 q 389 217 365 192 q 406 269 404 233 q 407 331 407 306 l 407 360 q 397 485 407 465 q 333 504 386 504 z "},"ã":{"ha":661,"x_min":26,"x_max":628,"o":"m 485 3 l 425 -1 q 408 22 408 4 q 411 55 408 40 q 414 78 414 69 q 328 20 379 43 q 231 -3 278 -3 q 115 61 164 -3 q 26 369 26 178 q 94 597 26 507 q 260 690 161 688 q 323 688 303 690 q 366 672 343 686 q 401 626 389 657 q 403 666 400 643 q 407 697 407 689 q 474 699 407 699 q 610 692 571 694 q 613 658 613 669 l 613 644 q 611 546 611 608 l 614 221 q 612 76 614 108 q 610 24 610 43 q 592 -1 610 4 l 575 -1 l 485 3 m 333 504 q 307 504 333 504 q 247 478 281 504 q 206 420 214 453 q 197 333 197 388 q 231 235 197 278 q 321 192 264 192 q 389 217 365 192 q 406 269 404 233 q 407 331 407 306 l 407 360 q 397 485 407 465 q 333 504 386 504 m 303 914 q 224 847 224 914 q 228 819 224 833 l 228 818 q 147 824 204 824 q 65 822 89 824 q 149 1001 100 946 q 261 1050 197 1050 q 371 993 326 1050 q 401 961 390 968 q 435 946 419 946 q 473 969 451 946 q 508 1035 494 993 q 622 1039 510 1035 l 624 1038 q 625 1036 624 1036 l 625 1035 q 626 1006 626 1019 q 597 894 626 950 q 465 811 554 811 q 401 826 435 811 q 351 882 368 842 q 303 914 333 913 z "},"ä":{"ha":661,"x_min":26,"x_max":615,"o":"m 485 3 l 425 -1 q 408 22 408 4 q 411 55 408 40 q 414 78 414 69 q 328 20 379 43 q 231 -3 278 -3 q 115 61 164 -3 q 26 369 26 178 q 94 597 26 507 q 260 690 161 688 q 323 688 303 690 q 366 672 343 686 q 401 626 389 657 q 403 666 400 643 q 407 697 407 689 q 474 699 407 699 q 610 692 571 694 q 613 658 613 669 l 613 644 q 611 546 611 608 l 614 221 q 612 76 614 108 q 610 24 610 43 q 592 -1 610 4 l 575 -1 l 485 3 m 333 504 q 307 504 333 504 q 247 478 281 504 q 206 420 214 453 q 197 333 197 388 q 231 235 197 278 q 321 192 264 192 q 389 217 365 192 q 406 269 404 233 q 407 331 407 306 l 407 360 q 397 485 407 465 q 333 504 386 504 m 353 874 q 294 861 344 861 l 185 864 q 165 864 174 864 l 160 1028 q 160 1056 160 1042 l 349 1051 l 353 874 m 608 874 q 550 861 600 861 l 440 864 q 421 864 429 864 l 415 1028 q 415 1056 415 1042 l 604 1051 l 608 874 z "},"å":{"ha":661,"x_min":26,"x_max":615,"o":"m 371 792 q 335 789 356 789 q 293 790 314 789 q 231 831 246 793 q 221 918 221 879 q 244 1017 221 986 q 331 1046 276 1046 q 353 1044 342 1046 q 463 1004 436 1042 q 474 919 474 964 q 454 825 474 875 q 371 792 435 794 m 283 924 q 297 863 283 876 q 332 850 313 850 l 346 850 q 406 871 397 853 q 413 917 413 903 q 403 964 413 949 q 354 983 383 983 q 307 975 325 983 q 287 946 290 964 q 283 924 283 928 m 485 3 l 425 -1 q 408 22 408 4 q 411 55 408 40 q 414 78 414 69 q 328 20 379 43 q 231 -3 278 -3 q 115 61 164 -3 q 26 369 26 178 q 94 597 26 507 q 260 690 161 688 q 323 688 303 690 q 366 672 343 686 q 401 626 389 657 q 403 666 400 643 q 407 697 407 689 q 474 699 407 699 q 610 692 571 694 q 613 658 613 669 l 613 644 q 611 546 611 608 l 614 221 q 612 76 614 108 q 610 24 610 43 q 592 -1 610 4 l 575 -1 l 485 3 m 333 504 q 307 504 333 504 q 247 478 281 504 q 206 420 214 453 q 197 333 197 388 q 231 235 197 278 q 321 192 264 192 q 389 217 365 192 q 406 269 404 233 q 407 331 407 306 l 407 360 q 397 485 407 465 q 333 504 386 504 z "},"æ":{"ha":976,"x_min":13,"x_max":951,"o":"m 492 626 q 686 692 567 692 q 774 681 731 692 q 951 413 951 650 q 949 357 951 386 q 822 344 919 349 q 674 340 724 340 q 597 346 624 340 l 597 306 l 599 276 q 599 263 599 267 q 601 251 600 260 q 604 240 603 243 q 608 230 606 236 q 613 219 610 224 q 618 208 615 214 q 681 157 640 169 q 712 153 693 153 q 756 176 731 153 q 782 257 782 199 q 782 268 782 263 q 797 268 786 268 l 899 271 q 946 265 938 271 q 943 235 944 256 q 941 206 942 215 q 939 178 940 196 q 936 149 938 160 q 933 125 935 139 q 928 103 931 111 q 924 85 926 94 q 910 60 919 69 q 847 17 889 31 q 746 0 799 0 l 608 4 q 485 82 531 18 q 413 29 440 46 q 271 -11 342 -11 q 54 81 136 -11 q 13 190 13 126 q 51 324 13 253 q 257 404 104 404 q 389 372 338 404 q 388 413 388 399 q 388 440 388 426 q 385 488 390 471 q 333 549 374 535 q 298 554 318 554 q 254 539 278 554 q 217 471 217 515 q 110 461 154 461 q 44 472 67 461 q 43 496 43 485 q 92 606 43 558 q 301 678 167 678 q 492 626 436 678 m 189 268 q 160 197 160 239 q 185 153 160 175 q 293 131 210 131 q 353 155 326 131 q 381 211 381 179 q 349 278 381 258 q 264 299 304 299 q 189 268 224 299 m 725 447 l 799 444 q 806 445 804 444 q 807 453 807 446 l 807 463 q 757 549 807 525 q 711 561 729 561 q 631 539 654 561 q 601 476 608 517 q 600 460 600 468 q 606 449 600 451 q 665 447 611 447 q 725 447 719 447 z "},"ç":{"ha":615,"x_min":32,"x_max":590,"o":"m 424 269 l 533 272 q 585 267 575 272 q 546 49 571 74 q 390 -17 506 -10 q 358 -110 385 -35 q 326 -204 331 -186 l 326 -206 q 175 -204 175 -206 q 242 -14 208 -115 l 224 -12 q 104 49 153 0 q 53 131 69 79 q 36 236 36 183 q 32 449 36 383 q 37 530 32 499 q 63 631 42 561 q 140 691 81 671 q 241 710 199 711 q 303 710 283 710 l 346 711 q 533 651 472 711 q 576 572 567 629 q 583 513 582 538 q 586 478 585 489 q 588 401 588 447 q 528 397 568 397 q 411 408 489 397 q 376 481 404 460 q 324 501 347 501 q 236 467 264 501 q 224 433 228 460 q 218 344 219 407 l 215 251 q 244 198 215 217 q 308 179 274 179 q 372 194 350 179 q 408 269 394 210 q 424 269 413 269 m 589 -124 l 590 -125 q 589 -124 589 -125 z "},"è":{"ha":617,"x_min":28,"x_max":592,"o":"m 456 821 q 361 813 422 813 q 269 815 300 813 q 198 886 258 832 q 128 950 138 940 l 224 1047 q 349 928 261 1018 q 456 821 438 838 m 354 -18 l 228 -14 q 156 11 189 -8 q 57 158 86 60 q 28 358 28 256 q 29 394 28 376 q 60 588 40 535 q 197 699 94 667 q 304 717 253 717 q 403 704 356 717 q 592 417 592 672 q 589 360 592 389 q 455 347 558 351 q 298 343 351 343 q 217 349 244 343 l 217 306 l 218 275 q 219 262 218 265 q 221 250 219 258 q 224 238 222 242 q 303 147 247 165 q 335 144 315 144 q 383 169 356 144 q 411 257 411 194 q 411 267 411 261 q 426 267 415 267 l 535 269 q 586 264 575 269 q 547 47 572 68 q 436 -12 510 -4 q 354 -18 390 -18 m 351 457 l 426 454 q 436 456 433 454 q 439 464 439 457 l 439 474 q 385 564 439 536 q 319 578 363 578 q 221 488 232 578 q 219 470 219 479 q 226 459 219 461 q 290 457 232 457 q 351 457 347 457 z "},"é":{"ha":617,"x_min":28,"x_max":592,"o":"m 386 815 q 328 813 356 813 q 200 821 231 813 q 306 928 218 838 q 432 1047 394 1018 l 528 950 q 483 911 518 940 q 386 815 394 835 m 354 -18 l 228 -14 q 156 11 189 -8 q 57 158 86 60 q 28 358 28 256 q 29 394 28 376 q 60 588 40 535 q 197 699 94 667 q 304 717 253 717 q 403 704 356 717 q 592 417 592 672 q 589 360 592 389 q 454 347 557 351 q 298 343 351 343 q 217 349 244 343 l 217 306 l 218 275 q 219 262 218 265 q 221 250 219 258 q 224 238 222 242 q 303 147 247 165 q 335 144 315 144 q 383 169 356 144 q 411 257 411 194 q 411 267 411 261 q 426 267 415 267 l 535 269 q 586 264 575 269 q 547 47 572 68 q 436 -12 510 -4 q 354 -18 390 -18 m 351 457 l 426 454 q 436 456 433 454 q 439 464 439 457 l 439 474 q 385 564 439 536 q 319 578 363 578 q 221 488 232 578 q 219 470 219 479 q 226 459 219 461 q 290 457 232 457 q 351 457 347 457 z "},"ê":{"ha":617,"x_min":28,"x_max":592,"o":"m 551 826 l 443 817 q 392 819 419 817 q 356 851 383 819 q 321 888 328 883 q 285 853 314 885 q 251 821 256 822 q 228 819 246 819 q 100 825 211 819 q 184 922 144 883 q 266 998 224 960 q 325 1051 308 1036 l 551 826 m 354 -18 l 228 -14 q 156 11 189 -8 q 57 158 86 60 q 28 358 28 256 q 29 394 28 376 q 60 588 40 535 q 197 699 94 667 q 304 717 253 717 q 403 704 356 717 q 592 417 592 672 q 589 360 592 389 q 454 347 557 351 q 298 343 351 343 q 217 349 244 343 l 217 306 l 218 275 q 219 262 218 265 q 221 250 219 258 q 224 238 222 242 q 303 147 247 165 q 335 144 315 144 q 383 169 356 144 q 411 257 411 194 q 411 267 411 261 q 426 267 415 267 l 535 269 q 586 264 575 269 q 547 47 572 68 q 436 -12 510 -4 q 354 -18 390 -18 m 351 457 l 426 454 q 436 456 433 454 q 439 464 439 457 l 439 474 q 385 564 439 536 q 319 578 363 578 q 221 488 232 578 q 219 470 219 479 q 226 459 219 461 q 290 457 232 457 q 351 457 347 457 z "},"ë":{"ha":617,"x_min":28,"x_max":592,"o":"m 279 874 q 221 861 271 861 l 111 864 q 92 864 100 864 l 86 1028 q 86 1056 86 1042 l 275 1051 l 279 874 m 535 874 q 476 861 526 861 l 367 864 q 347 864 356 864 l 342 1028 q 342 1056 342 1042 l 531 1051 l 535 874 m 354 -18 l 228 -14 q 156 11 189 -8 q 57 158 86 60 q 28 358 28 256 q 29 394 28 376 q 60 588 40 535 q 197 699 94 667 q 304 717 253 717 q 403 704 356 717 q 592 417 592 672 q 589 360 592 389 q 455 347 558 351 q 298 343 351 343 q 217 349 244 343 l 217 306 l 218 275 q 219 262 218 265 q 221 250 219 258 q 224 238 222 242 q 303 147 247 165 q 335 144 315 144 q 383 169 356 144 q 411 257 411 194 q 411 267 411 261 q 426 267 415 267 l 535 269 q 586 264 575 269 q 547 47 572 68 q 436 -12 510 -4 q 354 -18 390 -18 m 351 457 l 426 454 q 436 456 433 454 q 439 464 439 457 l 439 474 q 385 564 439 536 q 319 578 363 578 q 221 488 232 578 q 219 470 219 479 q 226 459 219 461 q 290 457 232 457 q 351 457 347 457 z "},"ì":{"ha":288,"x_min":-78,"x_max":250,"o":"m 54 703 l 93 701 q 175 699 144 699 q 219 699 206 699 l 243 699 l 243 694 l 236 236 q 242 8 236 165 q 178 -1 240 -1 l 60 0 q 46 0 49 0 q 51 182 51 68 l 47 504 q 54 701 47 635 l 54 703 m 250 821 q 156 813 217 813 q 64 815 94 813 q -8 886 53 832 q -78 950 -68 940 l 18 1047 q 144 928 56 1018 q 250 821 232 838 z "},"í":{"ha":288,"x_min":38,"x_max":365,"o":"m 51 236 l 44 694 l 44 699 l 68 699 q 112 699 82 699 q 194 701 142 699 l 233 703 l 233 701 q 240 499 240 626 l 236 189 q 242 0 236 75 q 228 0 239 0 l 110 -1 q 46 8 47 -1 q 51 236 51 165 m 224 815 q 165 813 193 813 q 38 821 69 813 q 144 928 56 838 q 269 1047 232 1018 l 365 950 q 322 911 356 940 q 224 815 232 835 z "},"î":{"ha":288,"x_min":-75,"x_max":376,"o":"m 54 703 l 93 701 q 175 699 144 699 q 219 699 206 699 l 243 699 l 243 694 l 236 236 q 242 8 236 165 q 178 -1 240 -1 l 60 0 q 46 0 49 0 q 51 182 51 68 l 47 504 q 54 701 47 635 l 54 703 m 376 826 l 268 817 q 217 819 244 817 q 181 851 208 819 q 146 888 153 883 q 110 853 139 885 q 76 821 81 822 q 53 819 71 819 q -75 825 36 819 q 9 922 -31 883 q 91 998 49 960 q 150 1051 133 1036 l 376 826 z "},"ï":{"ha":288,"x_min":-78,"x_max":372,"o":"m 117 874 q 58 861 108 861 l -51 864 q -71 864 -62 864 l -76 1028 q -76 1056 -76 1042 l 113 1051 l 117 874 m 372 874 q 314 861 364 861 l 204 864 q 185 864 193 864 l 179 1028 q 179 1056 179 1042 l 368 1051 l 372 874 m 61 703 l 93 701 q 175 699 144 699 q 219 699 206 699 l 243 699 l 243 694 l 236 236 q 242 8 236 165 q 178 -1 240 -1 l 60 0 q 46 0 49 0 q 51 182 51 68 l 47 504 q 54 701 47 635 l 54 703 q 61 703 56 703 z "},"ð":{"ha":738,"x_min":24,"x_max":708,"o":"m 315 432 q 201 324 201 432 q 204 289 201 307 l 207 267 q 269 197 222 217 q 346 176 317 176 q 388 178 375 176 q 504 279 504 192 q 463 376 504 342 q 315 432 400 432 m 696 539 q 708 411 708 461 q 705 301 708 361 q 679 163 701 240 q 594 35 657 86 q 435 -29 532 -17 q 351 -33 399 -33 q 103 61 197 -33 q 29 215 40 121 q 26 247 26 235 l 25 286 q 25 318 25 303 q 68 526 25 447 q 301 625 122 625 q 464 590 394 625 q 457 653 460 613 q 358 882 446 808 q 139 738 211 783 q 81 793 124 760 q 36 829 38 826 q 204 950 38 829 q 124 986 178 956 l 39 1031 q 78 1069 39 1033 q 159 1135 117 1104 q 210 1167 201 1167 q 235 1160 219 1167 q 299 1124 250 1154 q 388 1082 349 1094 q 538 1188 531 1183 q 599 1135 561 1156 q 661 1088 636 1114 q 603 1052 646 1078 q 531 1007 560 1026 q 613 908 586 961 q 656 786 639 854 q 678 673 672 718 q 696 539 685 628 z "},"ñ":{"ha":625,"x_min":35,"x_max":597,"o":"m 149 692 l 214 699 q 232 693 226 699 q 235 650 235 675 l 235 619 q 269 640 263 635 q 414 689 335 689 q 549 644 493 689 q 579 508 575 621 q 581 393 581 457 l 576 85 q 578 3 576 33 q 404 -3 540 -3 q 401 152 401 39 q 400 295 401 265 q 397 340 399 325 q 395 363 396 354 q 392 385 394 371 q 388 407 390 399 q 383 425 386 415 q 310 468 368 468 q 256 448 283 468 q 226 382 229 428 q 225 338 225 364 l 231 107 q 225 10 231 40 l 225 4 q 171 -4 213 -4 l 94 -3 q 53 -4 69 -3 l 49 538 q 51 692 49 667 q 100 689 75 689 l 149 692 m 272 914 q 193 847 193 914 q 197 819 193 833 l 197 818 q 116 824 174 824 q 35 822 58 824 q 118 1001 69 946 q 231 1050 167 1050 q 340 993 296 1050 q 371 961 360 968 q 405 946 389 946 q 442 969 421 946 q 478 1035 464 993 q 592 1039 479 1035 l 593 1038 q 594 1036 593 1036 l 594 1035 q 596 1006 596 1019 q 567 894 596 950 q 435 811 524 811 q 371 826 404 811 q 321 882 338 842 q 272 914 303 913 z "},"ò":{"ha":622,"x_min":33,"x_max":590,"o":"m 438 821 q 343 813 404 813 q 251 815 282 813 q 180 886 240 832 q 110 950 119 940 l 206 1047 q 331 928 243 1018 q 438 821 419 838 m 371 -14 l 224 -10 q 104 51 153 3 q 53 134 69 82 q 35 239 36 186 q 35 350 35 292 q 34 458 35 408 q 37 535 33 508 q 44 576 40 561 q 55 609 49 592 q 63 633 61 626 q 140 694 81 674 q 241 713 199 714 q 303 713 283 713 l 346 714 q 533 653 471 714 q 589 403 582 621 q 590 378 590 386 q 560 75 581 131 q 546 51 553 58 q 480 4 524 19 q 414 -12 436 -11 q 371 -14 392 -14 m 307 183 q 407 244 392 183 q 415 358 415 318 q 411 419 415 399 q 371 492 404 469 q 326 504 350 504 q 278 498 303 504 q 236 469 254 492 q 224 435 228 463 q 218 347 219 408 l 215 258 q 244 202 215 221 q 307 183 272 183 z "},"ó":{"ha":622,"x_min":33,"x_max":590,"o":"m 386 815 q 328 813 356 813 q 200 821 231 813 q 306 928 218 838 q 432 1047 394 1018 l 528 950 q 483 911 518 940 q 386 815 394 835 m 371 -14 l 224 -10 q 104 51 153 3 q 53 134 69 82 q 35 239 36 186 q 35 350 35 292 q 34 458 35 408 q 37 535 33 508 q 44 576 40 561 q 55 609 49 592 q 63 633 61 626 q 140 694 81 674 q 241 713 199 714 q 303 713 283 713 l 346 714 q 533 653 471 714 q 589 403 582 621 q 590 378 590 386 q 560 75 581 131 q 546 51 553 58 q 480 4 524 19 q 414 -12 436 -11 q 371 -14 392 -14 m 307 183 q 407 244 392 183 q 415 358 415 318 q 411 419 415 399 q 371 492 404 469 q 326 504 350 504 q 278 498 303 504 q 236 469 254 492 q 224 435 228 463 q 218 347 219 408 l 215 258 q 244 202 215 221 q 307 183 272 183 z "},"ô":{"ha":622,"x_min":33,"x_max":590,"o":"m 549 826 l 440 817 q 389 819 417 817 q 353 851 381 819 q 318 888 325 883 q 282 853 311 885 q 248 821 253 822 q 226 819 243 819 q 97 825 208 819 q 181 922 142 883 q 263 998 221 960 q 322 1051 306 1036 l 549 826 m 371 -14 l 224 -10 q 104 51 153 3 q 53 134 69 82 q 35 239 36 186 q 35 350 35 292 q 34 458 35 408 q 37 535 33 508 q 44 576 40 561 q 55 609 49 592 q 63 633 61 626 q 140 694 81 674 q 241 713 199 714 q 303 713 283 713 l 346 714 q 533 653 471 714 q 589 403 582 621 q 590 378 590 386 q 560 75 581 131 q 546 51 553 58 q 480 4 524 19 q 414 -12 436 -11 q 371 -14 392 -14 m 307 183 q 407 244 392 183 q 415 358 415 318 q 411 419 415 399 q 371 492 404 469 q 326 504 350 504 q 278 498 303 504 q 236 469 254 492 q 224 435 228 463 q 218 347 219 408 l 215 258 q 244 202 215 221 q 307 183 272 183 z "},"õ":{"ha":622,"x_min":32,"x_max":594,"o":"m 269 914 q 190 847 190 914 q 194 819 190 833 l 194 818 q 113 824 171 824 q 32 822 56 824 q 115 1001 67 946 q 228 1050 164 1050 q 338 993 293 1050 q 368 961 357 968 q 402 946 386 946 q 440 969 418 946 q 475 1035 461 993 q 589 1039 476 1035 l 590 1038 q 592 1036 590 1036 l 592 1035 q 593 1006 593 1019 q 564 894 593 950 q 432 811 521 811 q 368 826 401 811 q 318 882 335 842 q 269 914 300 913 m 371 -14 l 224 -10 q 104 51 153 3 q 53 134 69 82 q 35 239 36 186 q 35 350 35 292 q 34 458 35 408 q 37 535 33 508 q 44 576 40 561 q 55 609 49 592 q 63 633 61 626 q 140 694 81 674 q 241 713 199 714 q 303 713 283 713 l 346 714 q 533 653 471 714 q 589 403 582 621 q 590 378 590 386 q 560 75 581 131 q 546 51 553 58 q 480 4 524 19 q 414 -12 436 -11 q 371 -14 392 -14 m 307 183 q 407 244 392 183 q 415 358 415 318 q 411 419 415 399 q 371 492 404 469 q 326 504 350 504 q 278 498 303 504 q 236 469 254 492 q 224 435 228 463 q 218 347 219 408 l 215 258 q 244 202 215 221 q 307 183 272 183 z "},"ö":{"ha":622,"x_min":33,"x_max":590,"o":"m 274 874 q 215 861 265 861 l 106 864 q 86 864 94 864 l 81 1028 q 81 1056 81 1042 l 269 1051 l 274 874 m 529 874 q 471 861 521 861 l 361 864 q 342 864 350 864 l 336 1028 q 336 1056 336 1042 l 525 1051 l 529 874 m 371 -14 l 224 -10 q 104 51 153 3 q 53 134 69 82 q 35 239 36 186 q 35 350 35 292 q 34 458 35 408 q 37 535 33 508 q 44 576 40 561 q 55 609 49 592 q 63 633 61 626 q 140 694 81 674 q 241 713 199 714 q 303 713 283 713 l 346 714 q 533 653 471 714 q 589 403 582 621 q 590 378 590 386 q 560 75 581 131 q 546 51 553 58 q 480 4 524 19 q 414 -12 436 -11 q 371 -14 392 -14 m 307 183 q 407 244 392 183 q 415 358 415 318 q 411 419 415 399 q 371 492 404 469 q 326 504 350 504 q 278 498 303 504 q 236 469 254 492 q 224 435 228 463 q 218 347 219 408 l 215 258 q 244 202 215 221 q 307 183 272 183 z "},"÷":{"ha":647,"x_min":31,"x_max":618,"o":"m 617 231 l 31 238 l 33 399 l 615 399 l 613 282 q 618 231 613 235 l 617 231 m 233 1 q 229 75 229 25 l 232 163 q 323 174 258 174 q 406 165 388 174 l 403 131 q 397 3 397 24 l 397 0 l 394 0 l 238 1 l 233 1 m 233 468 q 229 542 229 492 l 232 629 q 323 640 258 640 q 406 632 388 640 l 403 597 q 397 469 397 490 l 397 467 l 394 467 l 238 468 l 233 468 z "},"ø":{"ha":488,"x_min":33,"x_max":454,"o":"m 332 697 l 386 699 q 425 692 422 699 q 415 658 425 681 q 408 622 406 635 q 453 461 453 569 q 451 414 453 439 q 436 114 451 199 q 385 27 424 61 q 293 -12 346 -7 q 238 -15 275 -14 q 183 -18 200 -15 l 182 -18 q 168 -33 182 -19 q 39 -36 153 -36 q 64 51 36 -31 l 65 53 l 64 56 q 35 321 35 174 q 38 419 35 381 q 42 489 40 458 q 103 649 43 589 q 226 681 146 681 q 282 678 253 681 q 284 690 283 679 q 290 700 285 700 l 292 700 q 332 697 304 697 m 146 261 l 238 540 l 238 542 l 231 542 q 190 524 210 539 q 163 489 171 508 q 156 419 158 464 q 151 364 153 374 l 147 340 q 144 281 144 297 q 146 261 144 264 m 332 265 l 325 372 l 325 375 q 232 114 324 374 q 233 113 233 114 q 321 169 307 128 q 332 265 332 215 z "},"ù":{"ha":625,"x_min":42,"x_max":578,"o":"m 436 821 q 342 813 403 813 q 250 815 281 813 q 178 886 239 832 q 108 950 118 940 l 204 1047 q 330 928 242 1018 q 436 821 418 838 m 476 3 l 411 -4 q 393 1 399 -4 q 390 44 390 19 l 390 75 q 356 54 363 60 q 211 6 290 6 q 76 50 132 6 q 44 186 50 72 q 43 303 43 239 l 49 618 q 47 692 49 664 q 221 697 85 697 q 224 542 224 656 q 225 399 224 429 q 228 355 226 369 q 230 332 229 340 q 233 310 231 324 q 237 288 235 296 q 242 269 239 279 q 315 226 257 226 q 369 247 342 226 q 399 313 396 267 q 400 351 400 328 l 393 589 q 400 685 393 656 l 400 690 q 454 699 413 699 l 531 697 q 572 699 556 697 l 576 157 q 574 3 576 28 q 525 6 550 6 l 476 3 z "},"ú":{"ha":624,"x_min":42,"x_max":578,"o":"m 385 815 q 326 813 354 813 q 199 821 229 813 q 305 928 217 838 q 431 1047 393 1018 l 526 950 q 483 911 517 940 q 385 815 393 835 m 476 3 l 411 -4 q 393 1 399 -4 q 390 44 390 19 l 390 75 q 356 54 363 60 q 211 6 290 6 q 76 50 132 6 q 44 186 50 72 q 43 303 43 239 l 49 618 q 47 692 49 664 q 221 697 85 697 q 224 542 224 656 q 225 399 224 429 q 228 355 226 369 q 230 332 229 340 q 233 310 231 324 q 237 288 235 296 q 242 269 239 279 q 315 226 257 226 q 369 247 342 226 q 399 313 396 267 q 400 351 400 328 l 393 589 q 400 685 393 656 l 400 690 q 454 699 413 699 l 531 697 q 572 699 556 697 l 576 157 q 574 3 576 28 q 525 6 550 6 l 476 3 z "},"û":{"ha":625,"x_min":42,"x_max":578,"o":"m 547 826 l 439 817 q 388 819 415 817 q 351 851 379 819 q 317 888 324 883 q 281 853 310 885 q 247 821 251 822 q 224 819 242 819 q 96 825 207 819 q 180 922 140 883 q 262 998 219 960 q 321 1051 304 1036 l 547 826 m 476 3 l 411 -4 q 393 1 399 -4 q 390 44 390 19 l 390 75 q 356 54 363 60 q 211 6 290 6 q 76 50 132 6 q 44 186 50 72 q 43 303 43 239 l 49 618 q 47 692 49 664 q 221 697 85 697 q 224 542 224 656 q 225 399 224 429 q 228 355 226 369 q 230 332 229 340 q 233 310 231 324 q 237 288 235 296 q 242 269 239 279 q 315 226 257 226 q 369 247 342 226 q 399 313 396 267 q 400 351 400 328 l 393 589 q 400 685 393 656 l 400 690 q 454 699 413 699 l 531 697 q 572 699 556 697 l 576 157 q 574 3 576 28 q 525 6 550 6 l 476 3 z "},"ü":{"ha":624,"x_min":42,"x_max":578,"o":"m 272 874 q 214 861 264 861 l 104 864 q 85 864 93 864 l 79 1028 q 79 1056 79 1042 l 268 1051 l 272 874 m 528 874 q 469 861 519 861 l 360 864 q 340 864 349 864 l 335 1028 q 335 1056 335 1042 l 524 1051 l 528 874 m 476 3 l 411 -4 q 393 1 399 -4 q 390 44 390 19 l 390 75 q 356 54 363 60 q 211 6 290 6 q 76 50 132 6 q 44 186 50 72 q 43 303 43 239 l 49 618 q 47 692 49 664 q 221 697 85 697 q 224 542 224 656 q 225 399 224 429 q 228 355 226 369 q 230 332 229 340 q 233 310 231 324 q 237 288 235 296 q 242 269 239 279 q 315 226 257 226 q 369 247 342 226 q 399 313 396 267 q 400 351 400 328 l 393 589 q 400 685 393 656 l 400 690 q 454 699 413 699 l 531 697 q 572 699 556 697 l 576 157 q 574 3 576 28 q 525 6 550 6 l 476 3 z "},"ý":{"ha":624,"x_min":-25,"x_max":613,"o":"m 361 815 q 303 813 331 813 q 175 821 207 813 q 281 928 193 838 q 407 1047 369 1018 l 503 950 q 458 911 493 940 q 361 815 369 835 m 410 693 l 551 696 q 613 693 592 696 q 531 360 563 506 q 490 168 500 214 q 458 60 479 122 q 415 -43 438 -1 q 353 -128 393 -85 q 267 -197 314 -172 q 38 -247 169 -247 q -8 -246 15 -247 q -25 -149 -25 -196 q -17 -61 -25 -103 l 75 -64 q 142 -50 128 -64 q 167 11 167 -26 q 90 372 167 69 q 38 572 68 460 q 4 694 7 683 q 65 692 26 692 l 153 693 q 210 690 192 693 q 231 574 215 661 q 258 428 247 488 q 318 190 292 263 q 362 440 338 243 q 410 693 386 636 z "},"þ":{"ha":653,"x_min":42,"x_max":626,"o":"m 181 -240 l 57 -239 q 42 -239 44 -239 q 50 397 50 -46 q 57 1008 50 839 l 246 1004 q 243 626 246 951 q 281 672 256 657 q 328 688 307 686 q 393 690 350 690 q 559 597 492 688 q 626 369 626 507 q 538 61 626 178 q 422 -3 489 -3 q 327 18 376 -3 q 244 72 278 39 q 249 -231 244 -169 q 181 -240 247 -240 m 406 478 q 389 491 406 478 q 318 504 372 504 q 255 483 264 504 q 246 408 246 463 q 246 331 246 354 q 247 290 246 307 q 251 250 247 274 q 264 217 256 226 q 338 192 288 192 q 422 235 389 192 q 456 333 456 278 q 447 420 456 388 q 406 478 439 453 z "},"ÿ":{"ha":624,"x_min":-25,"x_max":613,"o":"m 285 874 q 226 861 276 861 l 117 864 q 97 864 106 864 l 92 1028 q 92 1056 92 1042 l 281 1051 l 285 874 m 540 874 q 482 861 532 861 l 372 864 q 353 864 361 864 l 347 1028 q 347 1056 347 1042 l 536 1051 l 540 874 m 410 693 l 551 696 q 613 693 592 696 q 531 360 563 506 q 490 168 500 214 q 458 60 479 122 q 415 -43 438 -1 q 353 -128 393 -85 q 267 -197 314 -172 q 38 -247 169 -247 q -8 -246 15 -247 q -25 -149 -25 -196 q -17 -61 -25 -103 l 75 -64 q 142 -50 128 -64 q 167 11 167 -26 q 90 372 167 69 q 38 572 68 460 q 4 694 7 683 q 65 692 26 692 l 153 693 q 210 690 192 693 q 231 574 215 661 q 258 428 247 488 q 318 190 292 263 q 362 440 338 243 q 410 693 386 636 z "},"ĳ":{"ha":694,"x_min":46,"x_max":647,"o":"m 54 703 l 93 701 q 175 699 144 699 q 219 699 206 699 l 243 699 l 243 694 l 236 236 q 242 8 236 165 q 178 -1 240 -1 l 60 0 q 46 0 49 0 q 51 182 51 68 l 47 504 q 54 701 47 635 l 54 703 m 242 819 q 183 807 233 807 l 74 810 q 54 810 63 810 l 49 974 q 49 1001 49 988 l 238 997 l 242 819 m 646 365 l 647 158 q 625 -137 647 0 q 306 -261 572 -261 q 244 -260 276 -261 q 236 -186 236 -233 q 244 -72 236 -139 q 290 -74 260 -74 q 378 -62 321 -74 q 458 -17 435 -51 q 460 236 460 49 q 464 504 460 424 l 464 690 q 496 689 476 689 l 624 696 q 643 694 635 696 q 647 597 647 664 l 644 419 q 646 365 644 381 m 644 819 q 589 807 636 807 l 481 810 q 461 810 469 810 l 456 974 q 456 1001 456 988 l 640 997 l 644 819 z "},"Œ":{"ha":1153,"x_min":36,"x_max":1131,"o":"m 772 197 l 1128 190 l 1128 188 q 1131 101 1131 153 q 1115 4 1131 49 l 1114 4 q 976 3 1076 3 l 825 4 q 604 -3 657 4 q 483 -11 558 -4 q 364 -19 399 -19 q 257 -14 329 -19 q 57 151 111 1 q 38 284 39 232 q 36 384 36 336 q 43 545 36 432 q 51 700 50 658 q 91 845 53 779 q 196 946 129 911 q 311 972 242 972 l 421 968 q 501 967 429 968 q 640 965 574 965 q 989 968 769 965 l 1126 969 q 1128 878 1128 935 q 1122 765 1128 822 q 964 756 1067 756 l 907 756 q 753 746 763 756 q 753 732 753 740 l 749 644 q 760 586 749 607 q 842 583 785 583 q 929 579 900 583 q 931 576 929 578 q 933 532 933 575 l 931 381 l 931 379 l 929 379 q 885 381 919 381 l 768 379 l 767 379 q 756 296 756 371 q 769 197 756 221 l 772 197 m 221 501 l 219 383 q 278 188 219 243 q 315 169 300 169 q 347 172 329 169 q 392 196 364 175 q 438 263 425 225 q 461 358 451 300 q 476 556 476 500 q 464 692 476 656 q 459 701 461 694 q 454 713 457 708 q 333 783 418 783 q 267 765 294 783 q 221 672 231 736 q 218 572 218 647 q 221 501 221 544 z "},"œ":{"ha":976,"x_min":18,"x_max":951,"o":"m 786 264 l 894 267 q 946 261 935 267 q 907 44 932 65 q 835 6 889 19 q 744 -7 782 -7 q 671 -1 706 -7 l 651 1 q 515 75 563 15 q 498 98 504 89 q 490 107 492 107 q 369 10 458 26 q 265 -3 304 -3 l 222 -3 q 107 61 156 -3 q 18 369 18 178 q 85 599 18 507 q 251 693 153 690 l 329 694 q 405 687 361 694 q 469 662 449 679 q 499 618 489 644 q 571 669 528 651 q 642 690 614 688 q 722 693 671 693 l 783 693 q 888 630 847 682 q 939 519 928 578 q 950 420 950 460 q 949 357 950 381 q 815 344 918 349 q 658 340 711 340 q 576 346 604 340 l 576 303 l 578 272 q 578 259 578 263 q 581 247 579 256 q 583 235 582 239 q 663 144 607 163 q 695 142 675 142 q 743 167 715 142 q 771 254 771 192 q 771 264 771 258 q 786 264 775 264 m 744 561 q 679 575 722 575 q 581 485 592 575 q 584 457 576 460 q 649 454 592 454 q 723 454 707 454 q 765 453 739 454 q 795 453 792 451 q 799 461 799 454 l 799 471 q 744 561 799 533 m 394 353 l 393 415 q 373 538 393 510 q 294 567 353 567 q 178 485 196 567 q 163 410 163 433 q 163 365 163 388 q 163 321 163 343 q 169 259 164 299 q 185 196 175 219 q 217 153 194 172 q 267 132 239 132 q 313 135 296 132 q 342 151 329 139 q 364 177 354 164 q 379 212 374 190 q 388 250 385 233 q 392 294 392 267 q 394 332 393 321 q 394 353 394 343 z "},"Š":{"ha":674,"x_min":-50,"x_max":586,"o":"m 121 1265 q 249 1271 232 1271 q 272 1269 267 1271 q 306 1237 276 1268 q 342 1203 335 1206 q 376 1239 349 1207 q 413 1271 404 1271 q 460 1274 440 1274 q 503 1272 479 1274 q 549 1266 526 1269 q 572 1264 571 1263 l 346 1039 q 287 1092 329 1054 q 224 1150 244 1131 q 121 1265 165 1207 m -49 286 q 11 292 -40 292 l 164 288 q 199 221 167 244 q 258 197 232 197 q 303 206 283 197 q 353 273 353 224 q 331 344 353 322 q 313 362 321 354 q 289 376 304 369 q 265 387 274 383 q 236 395 256 390 q 188 406 217 400 q 153 413 158 411 q 58 460 104 422 q -35 674 -35 549 q 38 864 -35 775 q 150 949 85 921 q 293 971 210 971 q 458 933 376 971 q 564 828 529 897 q 585 738 585 782 q 578 658 585 694 l 576 658 q 463 649 515 649 q 368 660 410 649 q 371 679 371 669 q 340 735 371 713 q 285 757 308 757 q 250 754 263 757 q 194 657 186 739 q 285 597 211 608 q 421 550 358 589 q 525 451 483 511 q 578 286 578 383 q 547 153 578 214 q 444 32 515 71 q 288 -7 374 -7 q 119 28 203 -7 q -2 124 44 61 q -49 261 -49 188 q -49 278 -49 269 l -49 286 z "},"š":{"ha":625,"x_min":-36,"x_max":554,"o":"m 79 990 l 188 1000 q 239 997 211 1000 q 275 965 247 997 q 310 929 303 933 q 346 963 317 932 q 380 996 375 994 q 402 997 385 997 q 531 992 419 997 q 447 895 486 933 q 365 819 407 857 q 306 765 322 781 l 79 990 m 53 222 l 169 219 q 215 156 171 179 q 264 142 243 142 q 343 211 344 142 q 344 231 344 217 q 326 263 344 246 q 278 286 307 281 q 125 326 165 308 q 14 407 50 351 q -22 518 -22 463 q 17 635 -22 581 q 115 706 57 690 q 260 722 172 722 q 433 704 358 722 q 554 481 554 653 q 450 472 500 472 q 356 481 400 472 q 357 494 357 488 q 328 544 357 521 q 267 567 300 567 q 260 567 264 567 q 203 531 219 560 q 196 501 196 517 q 203 469 196 486 q 261 424 219 439 q 507 333 460 394 q 543 215 543 274 q 525 103 543 156 q 285 -22 465 -22 q 273 -22 281 -22 q 254 -22 265 -22 q 47 39 129 -22 q -36 211 -36 100 l -36 218 q 53 222 1 222 z "},"Ÿ":{"ha":603,"x_min":15,"x_max":622,"o":"m 22 956 l 160 964 q 233 953 207 964 q 315 713 271 804 q 425 950 356 785 q 467 956 426 950 q 552 963 507 963 q 622 957 597 963 l 622 956 q 418 468 568 783 q 215 -1 268 153 q 179 0 203 0 l 43 -3 q 18 -3 29 -3 l 15 -3 q 196 475 39 72 l 196 478 q 109 717 176 558 q 22 956 42 876 m 125 1054 q 121 1118 121 1076 l 124 1194 q 205 1204 153 1204 q 275 1196 257 1204 l 272 1165 q 267 1056 267 1074 l 267 1053 l 264 1053 l 129 1054 l 125 1054 m 367 1054 q 363 1118 363 1076 l 365 1194 q 447 1204 394 1204 q 517 1196 499 1204 l 514 1165 q 508 1056 508 1074 l 508 1053 l 506 1053 l 371 1054 l 367 1054 z "},"Ž":{"ha":658,"x_min":-3,"x_max":611,"o":"m 115 1265 q 244 1271 226 1271 q 266 1269 261 1271 q 300 1237 271 1268 q 336 1203 329 1206 q 371 1239 343 1207 q 407 1271 399 1271 q 454 1274 435 1274 q 497 1272 474 1274 q 543 1266 521 1269 q 567 1264 565 1263 l 340 1039 q 281 1092 324 1054 q 218 1150 239 1131 q 115 1265 160 1207 m 14 103 l 17 172 q 14 221 17 194 q 169 488 67 340 q 270 627 204 536 q 354 743 336 718 q 19 761 219 761 q 8 849 8 774 q 0 951 8 924 l 0 953 q -3 958 0 956 q 257 969 99 969 l 606 964 q 610 907 610 951 l 606 743 l 606 742 q 415 453 544 638 q 249 210 286 268 l 247 208 q 476 222 354 222 q 597 226 544 224 q 597 222 597 226 q 601 138 601 192 q 594 0 601 85 l 594 -3 q 297 6 439 6 q 26 -1 156 6 q 14 103 14 36 z "},"ž":{"ha":633,"x_min":17,"x_max":590,"o":"m 118 990 l 226 1000 q 278 997 250 1000 q 314 965 286 997 q 349 929 342 933 q 385 963 356 932 q 419 996 414 994 q 441 997 424 997 q 569 992 458 997 q 485 895 525 933 q 403 819 446 857 q 344 765 361 781 l 118 990 m 590 690 l 588 561 q 590 504 588 532 q 440 355 547 458 q 282 194 332 251 q 363 196 306 196 l 461 196 q 583 203 549 196 l 586 10 q 21 1 244 1 q 22 51 22 28 l 18 163 q 18 179 18 172 q 179 347 65 240 q 336 504 293 453 q 26 482 121 494 q 24 547 24 513 l 26 664 q 26 690 26 678 l 413 692 q 449 689 421 689 l 564 693 q 590 690 588 693 z "},"ƒ":{"ha":664,"x_min":24,"x_max":639,"o":"m 210 443 l 197 443 q 179 443 189 443 l 103 442 q 26 453 54 442 q 24 472 24 456 l 26 528 q 28 628 28 572 q 53 628 31 628 q 204 631 100 628 q 206 733 206 667 q 197 914 206 800 q 557 926 213 926 q 628 926 603 926 l 639 711 q 518 702 631 708 q 382 696 406 696 q 375 669 378 689 q 376 636 372 649 l 458 633 q 560 635 488 633 q 556 606 554 619 q 561 506 561 546 q 561 450 561 465 l 560 450 q 509 453 551 453 q 378 449 467 453 q 379 333 379 375 q 368 -7 379 292 l 368 -8 q 206 0 332 0 q 203 146 203 18 q 210 443 203 274 z "},"ˆ":{"ha":482,"x_min":15,"x_max":467,"o":"m 467 735 l 358 725 q 307 728 335 725 q 271 760 299 728 q 236 796 243 792 q 200 762 229 793 q 166 729 171 731 q 144 728 161 728 q 15 733 126 728 q 99 830 60 792 q 181 906 139 868 q 240 960 224 944 l 467 735 z "},"˜":{"ha":624,"x_min":24,"x_max":592,"o":"m 186 692 q 108 696 168 696 q 24 694 47 696 q 59 789 33 732 q 107 874 85 846 q 222 922 156 922 q 286 906 263 922 q 330 867 310 890 q 364 835 350 843 q 396 818 381 818 q 433 842 411 818 q 469 906 456 865 q 583 910 472 906 q 590 879 590 910 q 533 735 590 806 q 429 683 497 683 q 382 692 406 683 q 311 753 332 707 q 257 785 285 785 q 210 771 236 785 q 182 722 182 753 q 186 692 182 708 z "},"–":{"ha":632,"x_min":51,"x_max":581,"o":"m 579 221 l 51 231 l 56 494 l 576 494 q 581 221 576 383 l 579 221 z "},"—":{"ha":961,"x_min":53,"x_max":911,"o":"m 910 213 l 53 222 l 57 494 l 907 494 l 904 329 q 911 213 904 251 l 910 213 z "},"‘":{"ha":288,"x_min":25,"x_max":271,"o":"m 144 983 l 271 985 l 271 983 q 239 858 257 929 q 176 644 188 656 l 175 644 l 57 635 q 25 642 35 635 q 114 983 100 914 l 144 983 z "},"’":{"ha":288,"x_min":25,"x_max":271,"o":"m 144 983 l 271 985 l 271 983 q 239 858 257 929 q 176 644 188 656 l 175 644 l 57 635 q 25 642 35 635 q 114 983 100 914 l 144 983 z "},"‚":{"ha":272,"x_min":-6,"x_max":240,"o":"m 114 211 l 240 213 l 240 211 q 208 86 226 157 q 146 -128 157 -117 l 144 -128 l 26 -137 q -6 -131 4 -137 q 83 211 69 142 l 114 211 z "},"“":{"ha":510,"x_min":24,"x_max":492,"o":"m 150 636 l 24 635 l 24 636 q 56 761 38 690 q 118 975 107 964 l 119 975 l 236 985 q 269 978 258 985 q 181 636 242 858 l 150 636 m 372 636 l 246 635 l 246 636 q 278 761 260 690 q 340 975 329 964 l 342 975 l 458 985 q 492 978 481 985 q 403 636 465 858 l 372 636 z "},"”":{"ha":510,"x_min":25,"x_max":493,"o":"m 367 983 l 493 985 l 493 983 q 461 858 479 929 q 399 644 410 656 l 397 644 l 279 635 q 247 642 257 635 q 336 983 322 914 l 367 983 m 144 983 l 271 985 l 271 983 q 239 858 257 929 q 176 644 188 656 l 175 644 l 57 635 q 25 642 35 635 q 114 983 100 914 l 144 983 z "},"„":{"ha":490,"x_min":-8,"x_max":460,"o":"m 118 -136 l -8 -137 l -8 -136 q 24 -11 6 -82 q 86 203 75 192 l 88 203 l 204 213 q 238 206 226 213 q 149 -136 211 86 l 118 -136 m 340 -136 l 214 -137 l 214 -136 q 246 -11 228 -82 q 308 203 297 192 l 310 203 l 426 213 q 460 206 449 213 q 371 -136 432 86 l 340 -136 z "},"†":{"ha":376,"x_min":25,"x_max":350,"o":"m 233 700 l 239 338 l 239 336 q 147 332 169 336 q 142 467 142 371 l 142 617 q 142 694 142 664 q 133 694 140 694 l 67 693 q 28 701 33 693 q 25 738 25 708 l 26 807 q 69 810 39 810 l 96 808 q 142 814 132 808 q 147 961 142 901 q 197 969 175 969 q 238 965 219 969 q 236 921 236 947 l 236 849 q 236 814 236 829 l 236 811 q 309 813 281 813 q 349 811 338 813 q 347 753 347 782 q 350 704 347 725 l 350 703 l 254 700 q 235 700 243 700 l 233 700 z "},"‡":{"ha":397,"x_min":36,"x_max":361,"o":"m 38 592 q 151 596 74 596 q 153 658 153 633 q 151 697 153 683 l 151 699 q 139 699 147 699 l 81 697 q 42 703 53 697 q 36 736 36 708 l 38 797 q 38 810 38 807 q 97 813 58 813 q 151 815 136 814 l 156 961 l 156 963 q 206 971 183 971 q 246 967 228 971 l 247 849 q 247 815 247 829 q 319 817 292 817 q 358 815 347 817 q 360 707 358 736 q 353 707 357 707 l 267 701 q 247 703 256 701 l 246 703 q 243 659 243 685 q 249 597 243 633 q 311 601 285 601 q 358 599 338 601 l 358 550 q 361 492 358 508 l 361 490 q 249 485 256 485 l 246 485 q 247 421 247 468 q 249 340 247 374 q 154 336 225 336 l 153 336 l 150 431 q 151 479 150 453 q 113 482 142 482 l 89 481 q 40 486 54 481 q 38 519 38 496 l 39 571 q 38 592 39 583 z "},"•":{"ha":401,"x_min":71,"x_max":332,"o":"m 78 460 q 151 511 90 504 q 219 511 183 511 q 265 507 254 511 q 331 443 325 489 q 332 406 332 432 q 326 321 332 379 q 283 260 317 274 q 233 250 268 253 l 154 246 l 153 246 q 143 244 149 244 q 86 279 111 244 q 72 367 72 303 q 72 404 72 378 q 78 460 72 431 z "},"…":{"ha":722,"x_min":43,"x_max":679,"o":"m 47 1 q 43 75 43 25 l 46 163 q 137 174 72 174 q 219 165 201 174 l 217 131 q 211 3 211 24 l 211 0 l 208 0 l 51 1 l 47 1 m 276 1 q 272 75 272 28 l 275 163 q 366 174 301 174 q 449 165 431 174 l 447 131 q 440 3 440 24 l 440 0 l 438 0 l 281 1 l 276 1 m 507 1 q 503 75 503 25 l 506 163 q 597 174 532 174 q 679 165 661 174 l 678 131 q 671 3 671 24 l 671 0 l 668 0 l 511 1 l 507 1 z "},"‰":{"ha":1185,"x_min":26,"x_max":1161,"o":"m 531 982 l 606 983 q 669 974 657 983 q 661 949 665 965 q 626 833 657 933 q 576 678 596 733 q 549 603 556 624 q 503 468 542 583 q 413 210 444 288 l 333 10 q 329 3 332 6 q 289 1 319 1 q 156 -1 258 1 l 154 -1 q 166 60 143 -1 q 201 160 189 121 q 235 247 214 200 q 311 461 244 282 q 396 699 378 640 q 417 766 414 758 q 431 803 421 774 q 486 985 460 885 q 531 982 499 982 m 181 949 q 213 949 181 949 q 283 908 244 949 q 333 804 321 867 q 339 746 339 763 q 339 722 339 729 q 339 685 339 714 q 326 606 339 656 q 275 515 314 556 q 181 475 236 475 q 107 493 142 475 q 39 594 54 528 l 28 676 l 28 678 l 26 713 l 29 747 q 33 777 31 754 q 37 811 35 800 q 44 840 39 822 q 74 896 53 875 q 181 949 117 949 m 224 642 l 225 657 q 226 726 226 682 q 219 797 226 769 q 210 826 211 825 q 208 829 208 826 q 186 844 197 844 q 164 840 175 844 q 136 782 136 828 q 136 768 136 775 l 136 767 l 143 665 l 146 613 q 160 588 146 596 q 185 584 174 581 q 200 590 196 588 q 207 595 204 593 q 212 602 210 597 q 215 609 214 607 q 218 617 217 611 q 219 625 219 622 q 224 642 224 635 m 657 478 q 689 478 657 478 q 759 437 721 478 q 810 333 797 396 q 815 275 815 292 q 815 251 815 258 q 815 214 815 243 q 803 135 815 185 q 751 44 790 85 q 657 4 713 4 q 583 22 618 4 q 515 124 531 57 l 504 206 l 504 207 l 503 242 l 506 276 q 509 306 507 283 q 513 340 511 329 q 519 369 515 351 q 550 425 529 404 q 657 478 593 478 m 700 171 l 701 186 q 703 255 703 211 q 696 326 703 299 q 688 354 689 353 q 679 365 686 356 q 662 374 672 374 q 640 369 651 374 q 613 311 613 357 q 613 297 613 304 l 613 296 l 619 194 l 622 142 q 636 117 622 125 q 661 113 650 110 q 676 119 672 117 q 683 124 681 122 q 688 131 686 126 q 692 138 690 136 q 694 146 693 140 q 697 153 696 151 q 700 171 700 164 m 1001 478 q 1033 478 1001 478 q 1103 437 1065 478 q 1154 333 1142 396 q 1160 275 1160 292 q 1160 251 1160 258 q 1160 214 1160 243 q 1147 135 1160 185 q 1096 44 1135 85 q 1001 4 1057 4 q 928 22 963 4 q 860 124 875 57 l 849 206 l 849 207 l 847 242 l 850 276 q 853 306 851 283 q 858 340 856 329 q 864 369 860 351 q 894 425 874 404 q 1001 478 938 478 m 1044 171 l 1046 186 q 1047 255 1047 211 q 1040 326 1047 299 q 1032 354 1033 353 q 1024 365 1031 356 q 1006 374 1017 374 q 985 369 996 374 q 957 311 957 357 q 957 297 957 304 l 957 296 l 964 194 l 967 142 q 978 119 967 125 q 997 113 989 113 q 1010 115 1004 113 q 1021 119 1017 117 q 1028 124 1025 122 q 1033 131 1031 126 q 1036 138 1035 136 q 1039 146 1038 140 q 1042 153 1040 151 q 1044 171 1044 164 z "},"‹":{"ha":503,"x_min":18,"x_max":476,"o":"m 476 118 l 439 82 q 368 15 401 44 q 210 163 340 43 q 18 364 81 282 q 279 640 74 435 l 358 722 q 413 674 376 713 q 464 626 449 636 q 347 498 436 592 q 219 360 257 404 q 342 242 257 326 q 476 118 428 157 z "},"›":{"ha":503,"x_min":26,"x_max":485,"o":"m 42 104 l 26 118 q 160 242 75 157 q 283 360 246 326 q 156 498 246 404 q 39 626 67 592 q 90 674 54 636 q 144 722 126 713 l 224 640 q 485 364 429 435 q 292 163 422 282 q 135 15 163 43 q 64 82 101 44 l 42 104 z "},"€":{"ha":681,"x_min":40,"x_max":644,"o":"m 640 210 l 644 72 q 638 10 644 26 q 487 -1 569 -1 q 339 1 404 -1 l 314 4 q 197 45 243 18 q 132 97 151 72 q 61 249 82 156 q 40 431 40 342 l 43 654 q 101 860 50 779 q 278 968 160 946 q 472 985 368 985 l 561 983 l 628 985 l 629 985 l 629 983 q 636 869 636 919 q 631 775 636 781 q 589 778 622 775 q 543 781 556 781 q 500 782 531 782 q 454 780 469 782 q 414 772 439 778 q 375 758 389 767 q 317 704 338 738 l 322 704 q 440 697 418 704 l 440 696 q 444 629 444 664 q 440 558 444 594 l 440 557 q 342 547 413 547 l 263 547 q 267 501 263 518 q 440 499 397 501 q 447 435 447 469 q 442 361 447 400 q 354 355 410 356 q 281 353 299 354 q 385 249 297 269 q 527 233 443 235 q 640 225 611 231 l 640 224 q 640 210 640 218 z "},"™":{"ha":783,"x_min":53,"x_max":728,"o":"m 154 483 l 153 582 q 147 774 153 665 l 146 775 q 60 783 129 783 q 53 826 53 794 q 57 897 53 857 l 56 899 q 361 892 290 899 q 363 840 363 869 q 358 779 363 811 q 324 782 346 782 q 269 779 301 782 l 268 779 q 267 738 267 778 q 271 396 267 699 l 271 394 q 210 392 253 392 q 151 389 168 392 q 153 422 153 407 l 154 483 m 725 836 l 726 701 q 725 621 726 650 l 724 390 q 693 392 711 392 l 628 390 q 625 504 626 411 q 618 646 624 597 q 579 594 615 643 q 558 620 572 597 q 528 640 543 643 q 526 501 526 568 q 529 393 526 433 q 428 390 513 390 q 425 397 428 392 q 422 539 422 403 q 425 886 422 675 q 460 890 426 890 l 524 889 l 525 889 q 547 854 535 878 q 569 821 565 821 l 619 890 l 708 893 q 726 893 719 893 q 725 836 725 871 z "},"⅛":{"ha":817,"x_min":21,"x_max":782,"o":"m 528 983 l 597 986 q 635 979 629 986 l 635 978 q 300 11 386 233 l 297 7 l 294 1 q 282 1 292 1 l 197 3 q 174 1 178 3 q 329 441 203 89 q 507 985 456 793 q 528 983 511 983 m 242 794 l 235 482 q 236 433 235 450 q 193 421 236 421 l 126 425 l 126 493 l 135 757 q 133 771 135 767 q 122 751 131 771 q 104 732 113 732 q 58 742 96 732 q 21 757 21 753 q 60 840 24 778 q 104 911 96 903 l 167 913 q 239 910 192 913 q 242 794 242 883 m 782 367 l 782 347 q 736 246 782 289 q 781 142 781 206 q 748 41 781 79 q 651 3 715 3 q 552 42 586 3 q 518 147 518 81 q 554 250 518 213 q 522 347 522 290 q 550 447 522 404 q 624 493 578 490 q 640 493 632 493 q 731 476 697 493 q 765 438 747 468 q 782 367 782 408 m 649 410 q 608 358 608 410 q 653 306 608 307 q 683 320 672 306 q 694 357 694 335 q 683 394 694 379 q 649 410 671 410 m 642 200 q 606 154 606 200 q 617 113 606 131 q 649 94 629 94 q 678 110 668 94 q 689 147 689 125 q 676 184 689 168 q 642 200 664 200 z "},"⅜":{"ha":867,"x_min":28,"x_max":840,"o":"m 586 983 l 656 986 q 693 979 688 986 l 693 978 q 358 11 444 233 l 356 7 l 353 1 q 340 1 350 1 l 256 3 q 232 1 236 3 q 388 441 261 89 q 565 985 514 793 q 586 983 569 983 m 840 367 l 840 347 q 794 246 840 289 q 839 142 839 206 q 806 41 839 79 q 709 3 774 3 q 610 42 644 3 q 576 147 576 81 q 613 250 576 213 q 581 347 581 290 q 608 447 581 404 q 682 493 636 490 q 699 493 690 493 q 789 476 756 493 q 823 438 806 468 q 840 367 840 408 m 707 410 q 667 358 667 410 q 711 306 667 307 q 742 320 731 306 q 753 357 753 335 q 741 394 753 379 q 707 410 729 410 m 700 200 q 664 154 664 200 q 676 113 664 131 q 707 94 688 94 q 737 110 726 94 q 747 147 747 125 q 735 184 747 168 q 700 200 722 200 m 219 764 q 183 801 219 801 q 148 790 168 801 q 119 760 128 779 q 69 758 111 760 l 28 758 l 28 760 q 31 824 28 815 q 106 899 46 876 q 174 913 143 913 q 314 853 279 913 q 324 823 324 838 q 324 775 324 808 q 325 679 325 742 q 311 492 325 521 q 242 428 293 444 q 182 419 211 419 q 63 447 94 419 q 57 450 58 450 q 35 500 36 475 q 31 534 32 511 q 28 565 29 557 q 29 572 28 572 l 108 578 q 119 578 115 578 l 121 578 q 161 536 131 549 q 185 533 171 533 q 214 551 199 533 q 220 582 222 564 q 202 612 218 600 q 165 624 186 624 q 126 621 143 624 q 121 650 121 632 l 124 717 q 161 720 132 719 q 206 729 190 721 q 219 764 221 738 z "},"⅝":{"ha":868,"x_min":35,"x_max":842,"o":"m 588 983 l 657 986 q 694 979 689 986 l 694 978 q 360 11 446 233 l 357 7 l 354 1 q 342 1 351 1 l 257 3 q 233 1 238 3 q 389 441 263 89 q 567 985 515 793 q 588 983 571 983 m 842 367 l 842 347 q 796 246 842 289 q 840 142 840 206 q 808 41 840 79 q 710 3 775 3 q 612 42 646 3 q 578 147 578 81 q 614 250 578 213 q 582 347 582 290 q 610 447 582 404 q 683 493 638 490 q 700 493 692 493 q 790 476 757 493 q 824 438 807 468 q 842 367 842 408 m 708 410 q 668 358 668 410 q 713 306 668 307 q 743 320 732 306 q 754 357 754 335 q 742 394 754 379 q 708 410 731 410 m 701 200 q 665 154 665 200 q 677 113 665 131 q 708 94 689 94 q 738 110 728 94 q 749 147 749 125 q 736 184 749 168 q 701 200 724 200 m 138 801 q 138 800 138 800 q 139 792 139 800 q 143 776 139 785 l 144 776 l 144 775 l 146 775 q 183 778 165 778 q 217 776 201 778 q 300 726 269 768 q 333 645 331 683 q 336 579 336 607 q 333 519 336 551 q 292 457 325 483 q 226 426 258 431 q 174 421 194 421 q 121 426 153 421 q 63 460 89 432 q 36 531 36 489 q 39 574 36 542 l 39 575 l 138 579 l 138 575 q 171 535 142 535 q 222 571 208 535 q 229 601 229 586 q 224 631 229 615 q 186 667 213 660 q 146 671 176 671 l 38 667 q 36 743 36 667 q 35 907 36 819 l 36 907 l 82 908 q 249 911 174 911 q 329 910 324 911 l 328 883 q 328 833 328 858 l 326 808 q 139 804 308 804 l 138 804 l 138 801 z "},"⅞":{"ha":856,"x_min":28,"x_max":829,"o":"m 575 983 l 644 986 q 682 979 676 986 l 682 978 q 347 11 433 233 l 344 7 l 342 1 q 329 1 339 1 l 244 3 q 221 1 225 3 q 376 441 250 89 q 554 985 503 793 q 575 983 558 983 m 829 367 l 829 347 q 783 246 829 289 q 828 142 828 206 q 795 41 828 79 q 698 3 763 3 q 599 42 633 3 q 565 147 565 81 q 601 250 565 213 q 569 347 569 290 q 597 447 569 404 q 671 493 625 490 q 688 493 679 493 q 778 476 744 493 q 812 438 794 468 q 829 367 829 408 m 696 410 q 656 358 656 410 q 700 306 656 307 q 731 320 719 306 q 742 357 742 335 q 730 394 742 379 q 696 410 718 410 m 689 200 q 653 154 653 200 q 665 113 653 131 q 696 94 676 94 q 726 110 715 94 q 736 147 736 125 q 724 184 736 168 q 689 200 711 200 m 197 779 l 51 785 q 33 785 40 785 l 31 785 q 35 874 35 813 q 197 878 124 878 q 317 872 269 878 l 317 782 q 217 588 288 713 q 126 421 147 463 l 57 418 q 28 421 39 418 q 197 779 164 703 z "},"●":{"ha":804,"x_min":69,"x_max":740,"o":"m 224 28 q 82 194 96 86 q 69 335 69 263 q 76 472 69 407 q 126 590 82 538 q 294 679 183 663 q 422 682 360 682 q 533 673 483 682 q 636 631 583 664 l 653 619 q 739 444 733 558 q 740 389 740 414 q 733 284 740 343 q 722 208 725 225 q 656 85 715 142 q 475 15 597 26 q 342 8 399 8 q 224 28 286 8 z "},"ﬀ":{"ha":1096,"x_min":13,"x_max":1110,"o":"m 117 189 l 121 518 q 17 517 57 518 l 13 696 q 118 694 86 696 q 117 731 117 711 q 120 783 117 751 q 140 857 124 815 q 189 932 156 899 q 269 979 222 965 q 482 1008 351 1008 q 544 1007 513 1008 q 553 931 553 981 q 544 808 553 881 q 493 810 532 810 q 361 790 454 810 q 314 731 314 783 q 319 692 314 714 l 671 693 q 669 726 669 706 q 674 780 669 746 q 695 856 679 814 q 744 932 711 899 q 822 979 776 965 q 1036 1008 908 1008 q 1097 1007 1065 1008 q 1110 920 1110 969 q 1097 808 1110 871 q 1042 810 1082 810 q 915 790 1003 810 q 868 718 868 782 q 872 681 868 700 l 1088 681 q 1089 631 1089 663 l 1088 515 q 867 519 1001 519 l 867 3 q 832 4 853 4 l 699 -3 q 678 -1 686 -3 q 665 514 678 210 q 314 519 493 519 l 314 3 q 279 4 300 4 l 144 -3 q 124 -1 132 -3 q 117 189 117 38 z "},"ﬁ":{"ha":771,"x_min":11,"x_max":726,"o":"m 529 514 q 310 518 443 518 l 310 7 q 278 8 296 8 l 140 0 q 122 1 129 0 q 115 207 115 40 l 118 517 q 15 515 54 517 l 11 682 q 115 681 83 682 q 114 716 114 696 q 118 769 114 736 q 138 846 122 803 q 261 972 171 940 q 478 1003 351 1003 q 539 1001 507 1003 q 547 923 547 972 q 539 804 547 874 q 512 804 535 804 q 357 788 489 804 q 311 714 311 781 q 315 678 311 697 l 529 678 l 529 736 l 569 735 q 657 732 626 732 q 701 732 688 732 l 726 732 l 726 728 q 718 232 726 728 q 725 10 718 150 q 660 -1 714 -1 l 554 3 q 519 0 528 3 q 529 514 529 131 z "},"ﬂ":{"ha":781,"x_min":11,"x_max":739,"o":"m 536 522 q 314 526 450 526 l 314 7 q 279 8 300 8 l 144 1 q 124 3 132 1 q 117 194 117 42 l 121 525 q 15 524 56 525 l 11 693 q 118 692 86 693 q 117 739 117 711 q 124 813 117 767 q 170 913 132 858 q 281 993 208 968 q 481 1018 354 1018 q 540 1017 508 1018 l 579 1015 q 669 1013 638 1013 q 714 1013 700 1013 l 739 1013 l 739 1007 l 729 294 q 736 10 729 167 q 672 0 733 0 l 553 3 q 528 1 532 3 q 536 522 536 115 m 536 689 l 536 817 q 431 818 478 818 q 363 815 383 818 q 321 771 332 811 q 315 729 315 750 q 319 689 315 708 l 536 689 z "},"ﬃ":{"ha":1325,"x_min":13,"x_max":1281,"o":"m 279 8 l 142 0 q 122 1 131 0 q 119 518 119 38 q 17 517 56 518 l 13 694 q 117 693 85 694 q 115 728 115 708 q 119 780 115 747 q 139 853 124 813 q 263 974 172 943 q 481 1006 353 1006 q 542 1004 510 1006 q 550 926 550 975 q 542 807 550 876 q 490 808 529 808 q 358 789 451 808 q 313 728 313 782 q 317 690 313 711 l 667 692 q 665 719 665 706 q 696 864 665 793 q 819 977 732 949 q 1038 1006 906 1006 q 1093 1004 1064 1006 q 1103 926 1103 975 q 1093 807 1103 876 q 1042 808 1081 808 q 910 789 1003 808 q 864 715 864 783 q 868 681 864 699 l 1082 681 l 1082 739 l 1124 738 q 1208 735 1176 735 q 1256 735 1240 735 l 1281 735 l 1281 729 l 1274 249 q 1279 10 1274 175 q 1214 -1 1268 -1 l 1108 3 q 1074 0 1082 3 q 1082 515 1082 126 q 863 519 997 519 l 863 7 q 831 8 849 8 l 693 0 q 674 1 682 0 q 661 514 674 214 q 311 519 488 519 l 311 7 q 279 8 297 8 z "},"ﬄ":{"ha":1403,"x_min":13,"x_max":1361,"o":"m 117 189 l 121 518 q 17 517 57 518 l 13 696 q 118 694 86 696 q 117 731 117 711 q 120 783 117 751 q 140 857 124 815 q 189 932 156 899 q 269 979 222 965 q 482 1008 351 1008 q 544 1007 513 1008 q 553 931 553 981 q 544 808 553 881 q 493 810 532 810 q 361 790 454 810 q 314 731 314 783 q 319 692 314 714 l 671 693 q 669 726 669 706 q 674 780 669 746 q 695 856 679 814 q 744 932 711 899 q 822 979 776 965 q 1036 1008 908 1008 q 1097 1007 1065 1008 q 1110 920 1110 969 q 1097 808 1110 871 q 1042 810 1082 810 q 915 790 1003 810 q 868 718 868 782 q 872 681 868 700 l 1088 681 q 1089 631 1089 663 l 1088 515 q 867 519 1001 519 l 867 3 q 832 4 853 4 l 699 -3 q 678 -1 686 -3 q 665 514 678 210 q 314 519 493 519 l 314 3 q 279 4 300 4 l 144 -3 q 124 -1 132 -3 q 117 189 117 38 m 1354 1003 l 1351 483 q 1361 6 1351 158 q 1299 -4 1358 -4 l 1181 -1 q 1154 -3 1158 -1 q 1160 196 1160 74 q 1152 487 1160 318 q 1144 785 1144 656 q 1154 1007 1144 914 l 1354 1003 z "}}}
